<?xml version="1.0" encoding="utf-8"?>
<!-- created with bpmn-js / http://bpmn.io -->
<!DOCTYPE svg PUBLIC "-//W3C//DTD SVG 1.1//EN" "http://www.w3.org/Graphics/SVG/1.1/DTD/svg11.dtd">
<svg xmlns="http://www.w3.org/2000/svg" xmlns:xlink="http://www.w3.org/1999/xlink" width="1361" height="745" viewBox="117 76 1361 745" version="1.1"><defs><marker id="association-end-white-black" viewBox="0 0 20 20" refX="12" refY="10" markerWidth="10" markerHeight="10" orient="auto"><path d="M 1 5 L 11 10 L 1 15" style="fill: none; stroke-width: 1.5px; stroke-linecap: round; stroke-dasharray: 10000, 1; stroke: black;"></path></marker><marker id="sequenceflow-end-white-black" viewBox="0 0 20 20" refX="11" refY="10" markerWidth="10" markerHeight="10" orient="auto"><path d="M 1 5 L 11 10 L 1 15 Z" style="fill: black; stroke-width: 1px; stroke-linecap: round; stroke-dasharray: 10000, 1; stroke: black;"></path></marker></defs><g class="djs-group"><g class="djs-element djs-shape" data-element-id="Participant_02z3gj7" transform="translate(123 82)" style="display: block;"><g class="djs-visual"><rect x="0" y="0" width="1349" height="733" rx="0" ry="0" style="stroke: black; stroke-width: 2px; fill: white; fill-opacity: 0.95;"/><polyline points="30,0 30,733 " style="fill: none; stroke: black; stroke-width: 2px;"/><text class="djs-label" transform="translate(0 733) rotate(270)" style="font-family: Arial, sans-serif; font-size: 12px; fill: black;"><tspan x="348" y="18.5">taller 4</tspan></text></g><rect x="0" y="0" width="1349" height="733" class="djs-hit" style="fill: none; stroke-opacity: 0; stroke: white; stroke-width: 15px;"/><rect x="-6" y="-6" width="1361" height="745" class="djs-outline" style="fill: none;"/></g><g class="djs-children"><g class="djs-group"><g class="djs-element djs-shape" data-element-id="Lane_1t4edru" transform="translate(153 82)" style="display: block;"><g class="djs-visual"><rect x="0" y="0" width="1319" height="207" rx="0" ry="0" style="stroke: black; stroke-width: 2px; fill: white;"/><text class="djs-label" transform="translate(0 207) rotate(270)" style="font-family: Arial, sans-serif; font-size: 12px; fill: black;"><tspan x="74" y="18.5">Ingresador</tspan></text></g><rect x="0" y="0" width="1319" height="207" class="djs-hit" style="fill: none; stroke-opacity: 0; stroke: white; stroke-width: 15px;"/><rect x="-6" y="-6" width="1331" height="219" class="djs-outline" style="fill: none;"/></g></g><g class="djs-group"><g class="djs-element djs-shape" data-element-id="Lane_1hrjfuu" transform="translate(153 289)" style="display: block;"><g class="djs-visual"><rect x="0" y="0" width="1319" height="202" rx="0" ry="0" style="stroke: black; stroke-width: 2px; fill: white;"/><text class="djs-label" transform="translate(0 202) rotate(270)" style="font-family: Arial, sans-serif; font-size: 12px; fill: black;"><tspan x="71.5" y="18.5">Analizador</tspan></text></g><rect x="0" y="0" width="1319" height="202" class="djs-hit" style="fill: none; stroke-opacity: 0; stroke: white; stroke-width: 15px;"/><rect x="-6" y="-6" width="1331" height="214" class="djs-outline" style="fill: none;"/></g></g><g class="djs-group"><g class="djs-element djs-shape" data-element-id="Lane_1ybvm58" transform="translate(153 491)" style="display: block;"><g class="djs-visual"><rect x="0" y="0" width="1319" height="147" rx="0" ry="0" style="stroke: black; stroke-width: 2px; fill: white;"/><text class="djs-label" transform="translate(0 147) rotate(270)" style="font-family: Arial, sans-serif; font-size: 12px; fill: black;"><tspan x="52.609375" y="18.5">Visador</tspan></text></g><rect x="0" y="0" width="1319" height="147" class="djs-hit" style="fill: none; stroke-opacity: 0; stroke: white; stroke-width: 15px;"/><rect x="-6" y="-6" width="1331" height="159" class="djs-outline" style="fill: none;"/></g></g><g class="djs-group"><g class="djs-element djs-shape" data-element-id="Lane_1s8qo1g" transform="translate(153 638)" style="display: block;"><g class="djs-visual"><rect x="0" y="0" width="1319" height="177" rx="0" ry="0" style="stroke: black; stroke-width: 2px; fill: white;"/><text class="djs-label" transform="translate(0 177) rotate(270)" style="font-family: Arial, sans-serif; font-size: 12px; fill: black;"><tspan x="64" y="18.5">Firmador</tspan></text></g><rect x="0" y="0" width="1319" height="177" class="djs-hit" style="fill: none; stroke-opacity: 0; stroke: white; stroke-width: 15px;"/><rect x="-6" y="-6" width="1331" height="189" class="djs-outline" style="fill: none;"/></g></g><g class="djs-group"><g class="djs-element djs-shape" data-element-id="StartEvent_1" transform="translate(196 161)" style="display: block;"><g class="djs-visual"><circle cx="18" cy="18" r="18" style="stroke: black; stroke-width: 2px; fill: white;"/></g><rect x="0" y="0" width="36" height="36" class="djs-hit" style="fill: none; stroke-opacity: 0; stroke: white; stroke-width: 15px;"/><rect x="-6" y="-6" width="48" height="48" class="djs-outline" style="fill: none;"/></g></g><g class="djs-group"><g class="djs-element djs-shape" data-element-id="StartEvent_1_label" transform="translate(169 197)" style="display: none;"><g class="djs-visual"><text class="djs-label" style="font-family: Arial, sans-serif; font-size: 11px;"><tspan x="0" y="12"/></text></g><rect x="0" y="0" width="90" height="20" class="djs-hit" style="fill: none; stroke-opacity: 0; stroke: white; stroke-width: 15px;"/><rect x="-6" y="-6" width="102" height="32" class="djs-outline" style="fill: none;"/></g></g><g class="djs-group"><g class="djs-element djs-shape" data-element-id="Task_0a0xoy7" transform="translate(315 139)" style="display: block;"><g class="djs-visual"><rect x="0" y="0" width="100" height="80" rx="10" ry="10" style="stroke: black; stroke-width: 2px; fill: white;"/><text class="djs-label" style="font-family: Arial, sans-serif; font-size: 12px; fill: black;"><tspan x="27.5" y="36.5">Ingresar </tspan><tspan x="19.5" y="50.5">documento </tspan></text></g><rect x="0" y="0" width="100" height="80" class="djs-hit" style="fill: none; stroke-opacity: 0; stroke: white; stroke-width: 15px;"/><rect x="-6" y="-6" width="112" height="92" class="djs-outline" style="fill: none;"/></g></g><g class="djs-group"><g class="djs-element djs-shape" data-element-id="Task_1avh9y7" transform="translate(509 355)" style="display: block;"><g class="djs-visual"><rect x="0" y="0" width="100" height="80" rx="10" ry="10" style="stroke: black; stroke-width: 2px; fill: white;"/><text class="djs-label" style="font-family: Arial, sans-serif; font-size: 12px; fill: black;"><tspan x="27.5" y="36.5">Analizar </tspan><tspan x="19.5" y="50.5">documento </tspan></text></g><rect x="0" y="0" width="100" height="80" class="djs-hit" style="fill: none; stroke-opacity: 0; stroke: white; stroke-width: 15px;"/><rect x="-6" y="-6" width="112" height="92" class="djs-outline" style="fill: none;"/></g></g><g class="djs-group"><g class="djs-element djs-shape" data-element-id="Task_0ua7ksm" transform="translate(656 525)" style="display: block;"><g class="djs-visual"><rect x="0" y="0" width="100" height="80" rx="10" ry="10" style="stroke: black; stroke-width: 2px; fill: white;"/><text class="djs-label" style="font-family: Arial, sans-serif; font-size: 12px; fill: black;"><tspan x="36.109375" y="36.5">Visar </tspan><tspan x="19.5" y="50.5">documento </tspan></text></g><rect x="0" y="0" width="100" height="80" class="djs-hit" style="fill: none; stroke-opacity: 0; stroke: white; stroke-width: 15px;"/><rect x="-6" y="-6" width="112" height="92" class="djs-outline" style="fill: none;"/></g></g><g class="djs-group"><g class="djs-element djs-shape" data-element-id="Task_04h97oo" transform="translate(819 695)" style="display: block;"><g class="djs-visual"><rect x="0" y="0" width="100" height="80" rx="10" ry="10" style="stroke: black; stroke-width: 2px; fill: white;"/><text class="djs-label" style="font-family: Arial, sans-serif; font-size: 12px; fill: black;"><tspan x="32.5" y="36.5">Firmar </tspan><tspan x="19.5" y="50.5">documento </tspan></text></g><rect x="0" y="0" width="100" height="80" class="djs-hit" style="fill: none; stroke-opacity: 0; stroke: white; stroke-width: 15px;"/><rect x="-6" y="-6" width="112" height="92" class="djs-outline" style="fill: none;"/></g></g><g class="djs-group"><g class="djs-element djs-shape" data-element-id="EndEvent_0dcn0w0" transform="translate(1202 161)" style="display: block;"><g class="djs-visual"><circle cx="18" cy="18" r="18" style="stroke: black; stroke-width: 4px; fill: white;"/></g><rect x="0" y="0" width="36" height="36" class="djs-hit" style="fill: none; stroke-opacity: 0; stroke: white; stroke-width: 15px;"/><rect x="-6" y="-6" width="48" height="48" class="djs-outline" style="fill: none;"/></g></g><g class="djs-group"><g class="djs-element djs-shape" data-element-id="EndEvent_0dcn0w0_label" transform="translate(1175 201)" style="display: none;"><g class="djs-visual"><text class="djs-label" style="font-family: Arial, sans-serif; font-size: 11px;"><tspan x="0" y="12"/></text></g><rect x="0" y="0" width="90" height="12" class="djs-hit" style="fill: none; stroke-opacity: 0; stroke: white; stroke-width: 15px;"/><rect x="-6" y="-6" width="102" height="24" class="djs-outline" style="fill: none;"/></g></g><g class="djs-group"><g class="djs-element djs-shape" data-element-id="Task_0e1ibdf" transform="translate(1015 139)" style="display: block;"><g class="djs-visual"><rect x="0" y="0" width="100" height="80" rx="10" ry="10" style="stroke: black; stroke-width: 2px; fill: white;"/><text class="djs-label" style="font-family: Arial, sans-serif; font-size: 12px; fill: black;"><tspan x="20" y="36.5">Despachar </tspan><tspan x="19.5" y="50.5">documento </tspan></text></g><rect x="0" y="0" width="100" height="80" class="djs-hit" style="fill: none; stroke-opacity: 0; stroke: white; stroke-width: 15px;"/><rect x="-6" y="-6" width="112" height="92" class="djs-outline" style="fill: none;"/></g></g><g class="djs-group"><g class="djs-element djs-shape" data-element-id="DataObjectReference_10b7lhv" transform="translate(504 124)" style="display: block;"><g class="djs-visual"><path d="m 0,0 28.23529411764706,0 7.058823529411765,8.196721311475411 0,40.98360655737705 -35.294117647058826,0 0,-49.18032786885246 28.23529411764706,0 0,8.196721311475411 7.058823529411765,0" style="fill: white; stroke-width: 2px; stroke: black;"/></g><rect x="0" y="0" width="36" height="50" class="djs-hit" style="fill: none; stroke-opacity: 0; stroke: white; stroke-width: 15px;"/><rect x="-6" y="-6" width="48" height="62" class="djs-outline" style="fill: none;"/></g></g><g class="djs-group"><g class="djs-element djs-shape" data-element-id="DataObjectReference_10b7lhv_label" transform="translate(496 178)" style="display: block;"><g class="djs-visual"><text class="djs-label" style="font-family: Arial, sans-serif; font-size: 11px;"><tspan x="0" y="12">Informe de </tspan><tspan x="3.5" y="24">resultado </tspan></text></g><rect x="0" y="0" width="52" height="24" class="djs-hit" style="fill: none; stroke-opacity: 0; stroke: white; stroke-width: 15px;"/><rect x="-6" y="-6" width="64" height="36" class="djs-outline" style="fill: none;"/></g></g><g class="djs-group"><g class="djs-element djs-shape" data-element-id="DataObjectReference_0v3wfr3" transform="translate(688 358)" style="display: block;"><g class="djs-visual"><path d="m 0,0 28.23529411764706,0 7.058823529411765,8.196721311475411 0,40.98360655737705 -35.294117647058826,0 0,-49.18032786885246 28.23529411764706,0 0,8.196721311475411 7.058823529411765,0" style="fill: white; stroke-width: 2px; stroke: black;"/></g><rect x="0" y="0" width="36" height="50" class="djs-hit" style="fill: none; stroke-opacity: 0; stroke: white; stroke-width: 15px;"/><rect x="-6" y="-6" width="48" height="62" class="djs-outline" style="fill: none;"/></g></g><g class="djs-group"><g class="djs-element djs-shape" data-element-id="DataObjectReference_0v3wfr3_label" transform="translate(680 412)" style="display: block;"><g class="djs-visual"><text class="djs-label" style="font-family: Arial, sans-serif; font-size: 11px;"><tspan x="0" y="12">Informe de </tspan><tspan x="3.5" y="24">resultado </tspan></text></g><rect x="0" y="0" width="52" height="24" class="djs-hit" style="fill: none; stroke-opacity: 0; stroke: white; stroke-width: 15px;"/><rect x="-6" y="-6" width="64" height="36" class="djs-outline" style="fill: none;"/></g></g><g class="djs-group"><g class="djs-element djs-shape" data-element-id="DataObjectReference_1cb4zad" transform="translate(830 511)" style="display: block;"><g class="djs-visual"><path d="m 0,0 28.23529411764706,0 7.058823529411765,8.196721311475411 0,40.98360655737705 -35.294117647058826,0 0,-49.18032786885246 28.23529411764706,0 0,8.196721311475411 7.058823529411765,0" style="fill: white; stroke-width: 2px; stroke: black;"/></g><rect x="0" y="0" width="36" height="50" class="djs-hit" style="fill: none; stroke-opacity: 0; stroke: white; stroke-width: 15px;"/><rect x="-6" y="-6" width="48" height="62" class="djs-outline" style="fill: none;"/></g></g><g class="djs-group"><g class="djs-element djs-shape" data-element-id="DataObjectReference_1cb4zad_label" transform="translate(822 565)" style="display: block;"><g class="djs-visual"><text class="djs-label" style="font-family: Arial, sans-serif; font-size: 11px;"><tspan x="0" y="12">Informe de </tspan><tspan x="3.5" y="24">resultado </tspan></text></g><rect x="0" y="0" width="52" height="24" class="djs-hit" style="fill: none; stroke-opacity: 0; stroke: white; stroke-width: 15px;"/><rect x="-6" y="-6" width="64" height="36" class="djs-outline" style="fill: none;"/></g></g><g class="djs-group"><g class="djs-element djs-shape" data-element-id="DataObjectReference_0u7sw7i" transform="translate(1004 719)" style="display: block;"><g class="djs-visual"><path d="m 0,0 28.23529411764706,0 7.058823529411765,8.196721311475411 0,40.98360655737705 -35.294117647058826,0 0,-49.18032786885246 28.23529411764706,0 0,8.196721311475411 7.058823529411765,0" style="fill: white; stroke-width: 2px; stroke: black;"/></g><rect x="0" y="0" width="36" height="50" class="djs-hit" style="fill: none; stroke-opacity: 0; stroke: white; stroke-width: 15px;"/><rect x="-6" y="-6" width="48" height="62" class="djs-outline" style="fill: none;"/></g></g><g class="djs-group"><g class="djs-element djs-shape" data-element-id="DataObjectReference_0u7sw7i_label" transform="translate(996 773)" style="display: block;"><g class="djs-visual"><text class="djs-label" style="font-family: Arial, sans-serif; font-size: 11px;"><tspan x="0" y="12">Informe de </tspan><tspan x="3.5" y="24">resultado </tspan></text></g><rect x="0" y="0" width="52" height="24" class="djs-hit" style="fill: none; stroke-opacity: 0; stroke: white; stroke-width: 15px;"/><rect x="-6" y="-6" width="64" height="36" class="djs-outline" style="fill: none;"/></g></g><g class="djs-group"><g class="djs-element djs-shape" data-element-id="DataObjectReference_0whu4pa" transform="translate(1161 206)" style="display: block;"><g class="djs-visual"><path d="m 0,0 28.23529411764706,0 7.058823529411765,8.196721311475411 0,40.98360655737705 -35.294117647058826,0 0,-49.18032786885246 28.23529411764706,0 0,8.196721311475411 7.058823529411765,0" style="fill: white; stroke-width: 2px; stroke: black;"/></g><rect x="0" y="0" width="36" height="50" class="djs-hit" style="fill: none; stroke-opacity: 0; stroke: white; stroke-width: 15px;"/><rect x="-6" y="-6" width="48" height="62" class="djs-outline" style="fill: none;"/></g></g><g class="djs-group"><g class="djs-element djs-shape" data-element-id="DataObjectReference_0whu4pa_label" transform="translate(1155 260)" style="display: block;"><g class="djs-visual"><text class="djs-label" style="font-family: Arial, sans-serif; font-size: 11px;"><tspan x="1.5" y="12">Boleta de </tspan><tspan x="0" y="24">despacho </tspan></text></g><rect x="0" y="0" width="48" height="24" class="djs-hit" style="fill: none; stroke-opacity: 0; stroke: white; stroke-width: 15px;"/><rect x="-6" y="-6" width="60" height="36" class="djs-outline" style="fill: none;"/></g></g><g class="djs-group"><g class="djs-element djs-connection" data-element-id="SequenceFlow_055pyw9" style="display: block;"><g class="djs-visual"><path d="m  232,179L315,179 " style="fill: none; stroke-width: 2px; stroke: black; stroke-linejoin: round; marker-end: url('#sequenceflow-end-white-black');"/></g><polyline points="232,179 315,179 " class="djs-hit" style="fill: none; stroke-opacity: 0; stroke: white; stroke-width: 15px;"/><rect x="226" y="173" width="95" height="12" class="djs-outline" style="fill: none;"/></g></g><g class="djs-group"><g class="djs-element djs-shape" data-element-id="SequenceFlow_055pyw9_label" transform="translate(229 158)" style="display: none;"><g class="djs-visual"><text class="djs-label" style="font-family: Arial, sans-serif; font-size: 11px;"><tspan x="0" y="12"/></text></g><rect x="0" y="0" width="90" height="12" class="djs-hit" style="fill: none; stroke-opacity: 0; stroke: white; stroke-width: 15px;"/><rect x="-6" y="-6" width="102" height="24" class="djs-outline" style="fill: none;"/></g></g><g class="djs-group"><g class="djs-element djs-connection" data-element-id="SequenceFlow_0heikn9" style="display: block;"><g class="djs-visual"><path d="m  415,179L462,179 L462,395 L509,395 " style="fill: none; stroke-width: 2px; stroke: black; stroke-linejoin: round; marker-end: url('#sequenceflow-end-white-black');"/></g><polyline points="415,179 462,179 462,395 509,395 " class="djs-hit" style="fill: none; stroke-opacity: 0; stroke: white; stroke-width: 15px;"/><rect x="409" y="173" width="106" height="228" class="djs-outline" style="fill: none;"/></g></g><g class="djs-group"><g class="djs-element djs-shape" data-element-id="SequenceFlow_0heikn9_label" transform="translate(432 281)" style="display: none;"><g class="djs-visual"><text class="djs-label" style="font-family: Arial, sans-serif; font-size: 11px;"><tspan x="0" y="12"/></text></g><rect x="0" y="0" width="90" height="12" class="djs-hit" style="fill: none; stroke-opacity: 0; stroke: white; stroke-width: 15px;"/><rect x="-6" y="-6" width="102" height="24" class="djs-outline" style="fill: none;"/></g></g><g class="djs-group"><g class="djs-element djs-connection" data-element-id="SequenceFlow_1kiav8d" style="display: block;"><g class="djs-visual"><path d="m  609,395L633,395 L633,565 L656,565 " style="fill: none; stroke-width: 2px; stroke: black; stroke-linejoin: round; marker-end: url('#sequenceflow-end-white-black');"/></g><polyline points="609,395 633,395 633,565 656,565 " class="djs-hit" style="fill: none; stroke-opacity: 0; stroke: white; stroke-width: 15px;"/><rect x="603" y="389" width="59" height="182" class="djs-outline" style="fill: none;"/></g></g><g class="djs-group"><g class="djs-element djs-shape" data-element-id="SequenceFlow_1kiav8d_label" transform="translate(603 474)" style="display: none;"><g class="djs-visual"><text class="djs-label" style="font-family: Arial, sans-serif; font-size: 11px;"><tspan x="0" y="12"/></text></g><rect x="0" y="0" width="90" height="12" class="djs-hit" style="fill: none; stroke-opacity: 0; stroke: white; stroke-width: 15px;"/><rect x="-6" y="-6" width="102" height="24" class="djs-outline" style="fill: none;"/></g></g><g class="djs-group"><g class="djs-element djs-connection" data-element-id="SequenceFlow_0yb1pzv" style="display: block;"><g class="djs-visual"><path d="m  756,565L788,565 L788,735 L819,735 " style="fill: none; stroke-width: 2px; stroke: black; stroke-linejoin: round; marker-end: url('#sequenceflow-end-white-black');"/></g><polyline points="756,565 788,565 788,735 819,735 " class="djs-hit" style="fill: none; stroke-opacity: 0; stroke: white; stroke-width: 15px;"/><rect x="750" y="559" width="75" height="182" class="djs-outline" style="fill: none;"/></g></g><g class="djs-group"><g class="djs-element djs-shape" data-element-id="SequenceFlow_0yb1pzv_label" transform="translate(758 644)" style="display: none;"><g class="djs-visual"><text class="djs-label" style="font-family: Arial, sans-serif; font-size: 11px;"><tspan x="0" y="12"/></text></g><rect x="0" y="0" width="90" height="12" class="djs-hit" style="fill: none; stroke-opacity: 0; stroke: white; stroke-width: 15px;"/><rect x="-6" y="-6" width="102" height="24" class="djs-outline" style="fill: none;"/></g></g><g class="djs-group"><g class="djs-element djs-connection" data-element-id="SequenceFlow_0setw8z" style="display: block;"><g class="djs-visual"><path d="m  919,735L957,735 L957,179 L1015,179 " style="fill: none; stroke-width: 2px; stroke: black; stroke-linejoin: round; marker-end: url('#sequenceflow-end-white-black');"/></g><polyline points="919,735 957,735 957,179 1015,179 " class="djs-hit" style="fill: none; stroke-opacity: 0; stroke: white; stroke-width: 15px;"/><rect x="913" y="173" width="108" height="568" class="djs-outline" style="fill: none;"/></g></g><g class="djs-group"><g class="djs-element djs-shape" data-element-id="SequenceFlow_0setw8z_label" transform="translate(927 451)" style="display: none;"><g class="djs-visual"><text class="djs-label" style="font-family: Arial, sans-serif; font-size: 11px;"><tspan x="0" y="12"/></text></g><rect x="0" y="0" width="90" height="12" class="djs-hit" style="fill: none; stroke-opacity: 0; stroke: white; stroke-width: 15px;"/><rect x="-6" y="-6" width="102" height="24" class="djs-outline" style="fill: none;"/></g></g><g class="djs-group"><g class="djs-element djs-connection" data-element-id="SequenceFlow_1tyubm8" style="display: block;"><g class="djs-visual"><path d="m  1115,179L1202,179 " style="fill: none; stroke-width: 2px; stroke: black; stroke-linejoin: round; marker-end: url('#sequenceflow-end-white-black');"/></g><polyline points="1115,179 1202,179 " class="djs-hit" style="fill: none; stroke-opacity: 0; stroke: white; stroke-width: 15px;"/><rect x="1109" y="173" width="99" height="12" class="djs-outline" style="fill: none;"/></g></g><g class="djs-group"><g class="djs-element djs-shape" data-element-id="SequenceFlow_1tyubm8_label" transform="translate(1114 158)" style="display: none;"><g class="djs-visual"><text class="djs-label" style="font-family: Arial, sans-serif; font-size: 11px;"><tspan x="0" y="12"/></text></g><rect x="0" y="0" width="90" height="12" class="djs-hit" style="fill: none; stroke-opacity: 0; stroke: white; stroke-width: 15px;"/><rect x="-6" y="-6" width="102" height="24" class="djs-outline" style="fill: none;"/></g></g></g></g><g class="djs-group"><g class="djs-element djs-connection" data-element-id="DataOutputAssociation_08gzpe4" style="display: block;"><g class="djs-visual"><polyline points="415,169 504,151 " style="fill: none; stroke: black; stroke-width: 2px; stroke-dasharray: 0.5, 5; stroke-linecap: round; stroke-linejoin: round; marker-end: url('#association-end-white-black');"/></g><polyline points="415,169 504,151 " class="djs-hit" style="fill: none; stroke-opacity: 0; stroke: white; stroke-width: 15px;"/><rect x="409" y="145" width="101" height="30" class="djs-outline" style="fill: none;"/></g></g><g class="djs-group"><g class="djs-element djs-connection" data-element-id="DataOutputAssociation_1t30tdn" style="display: block;"><g class="djs-visual"><polyline points="609,390 688,383 " style="fill: none; stroke: black; stroke-width: 2px; stroke-dasharray: 0.5, 5; stroke-linecap: round; stroke-linejoin: round; marker-end: url('#association-end-white-black');"/></g><polyline points="609,390 688,383 " class="djs-hit" style="fill: none; stroke-opacity: 0; stroke: white; stroke-width: 15px;"/><rect x="603" y="377" width="91" height="19" class="djs-outline" style="fill: none;"/></g></g><g class="djs-group"><g class="djs-element djs-connection" data-element-id="DataOutputAssociation_0gk6z5i" style="display: block;"><g class="djs-visual"><polyline points="756,553 830,536 " style="fill: none; stroke: black; stroke-width: 2px; stroke-dasharray: 0.5, 5; stroke-linecap: round; stroke-linejoin: round; marker-end: url('#association-end-white-black');"/></g><polyline points="756,553 830,536 " class="djs-hit" style="fill: none; stroke-opacity: 0; stroke: white; stroke-width: 15px;"/><rect x="750" y="530" width="86" height="29" class="djs-outline" style="fill: none;"/></g></g><g class="djs-group"><g class="djs-element djs-connection" data-element-id="DataOutputAssociation_0pfeqkd" style="display: block;"><g class="djs-visual"><polyline points="919,739 1004,747 " style="fill: none; stroke: black; stroke-width: 2px; stroke-dasharray: 0.5, 5; stroke-linecap: round; stroke-linejoin: round; marker-end: url('#association-end-white-black');"/></g><polyline points="919,739 1004,747 " class="djs-hit" style="fill: none; stroke-opacity: 0; stroke: white; stroke-width: 15px;"/><rect x="913" y="733" width="97" height="20" class="djs-outline" style="fill: none;"/></g></g><g class="djs-group"><g class="djs-element djs-connection" data-element-id="DataOutputAssociation_18hsnyb" style="display: block;"><g class="djs-visual"><polyline points="1115,205 1161,229 " style="fill: none; stroke: black; stroke-width: 2px; stroke-dasharray: 0.5, 5; stroke-linecap: round; stroke-linejoin: round; marker-end: url('#association-end-white-black');"/></g><polyline points="1115,205 1161,229 " class="djs-hit" style="fill: none; stroke-opacity: 0; stroke: white; stroke-width: 15px;"/><rect x="1109" y="199" width="58" height="36" class="djs-outline" style="fill: none;"/></g></g></svg>