<?xml version="1.0" encoding="utf-8"?>
<!-- created with bpmn-js / http://bpmn.io -->
<!DOCTYPE svg PUBLIC "-//W3C//DTD SVG 1.1//EN" "http://www.w3.org/Graphics/SVG/1.1/DTD/svg11.dtd">
<svg xmlns="http://www.w3.org/2000/svg" xmlns:xlink="http://www.w3.org/1999/xlink" width="1271" height="1036" viewBox="98 118 1271 1036" version="1.1"><defs><marker id="sequenceflow-end-white-black-9x9y1xub4as15odb9mvylutp4" viewBox="0 0 20 20" refX="11" refY="10" markerWidth="10" markerHeight="10" orient="auto"><path d="M 1 5 L 11 10 L 1 15 Z" style="fill: black; stroke-width: 1px; stroke-linecap: round; stroke-dasharray: 10000, 1; stroke: black;"/></marker><marker id="association-end-white-black-9x9y1xub4as15odb9mvylutp4" viewBox="0 0 20 20" refX="12" refY="10" markerWidth="10" markerHeight="10" orient="auto"><path d="M 1 5 L 11 10 L 1 15" style="fill: none; stroke-width: 1.5px; stroke-linecap: round; stroke-dasharray: 10000, 1; stroke: black;"/></marker></defs><g class="djs-group"><g class="djs-element djs-shape" data-element-id="Participant_09973hc" style="display: block;" transform="translate(104 124)"><g class="djs-visual"><rect x="0" y="0" width="1259" height="1024" rx="0" ry="0" style="stroke: black; stroke-width: 2px; fill: white; fill-opacity: 0.95;"/><polyline points="30,0 30,1024 " style="fill: none; stroke: black; stroke-width: 2px;"/><text lineHeight="1.2" class="djs-label" style="font-family: Arial, sans-serif; font-size: 12px; font-weight: normal; fill: black;" transform="matrix(-1.83697e-16 -1 1 -1.83697e-16 0 1024)"><tspan x="171.8046875" y="18.6">Solicitud de información para la elaboración del marco conceptual para la clasificación de riesgos de las sociedades operadoras</tspan></text></g><rect x="0" y="0" width="1259" height="1024" class="djs-hit" style="fill: none; stroke-opacity: 0; stroke: white; stroke-width: 15px;"/><rect x="-6" y="-6" width="1271" height="1036" class="djs-outline" style="fill: none;"/></g><g class="djs-children"><g class="djs-group"><g class="djs-element djs-shape" data-element-id="Lane_0d37665" style="display: block;" transform="translate(134 124)"><g class="djs-visual"><rect x="0" y="0" width="1229" height="255" rx="0" ry="0" style="stroke: black; stroke-width: 2px; fill: white; fill-opacity: 0.35;"/><text lineHeight="1.2" class="djs-label" style="font-family: Arial, sans-serif; font-size: 12px; font-weight: normal; fill: black;" transform="matrix(-1.83697e-16 -1 1 -1.83697e-16 0 255)"><tspan x="48.296875" y="18.6">Administrador de documentos</tspan></text></g><rect x="0" y="0" width="1229" height="255" class="djs-hit" style="fill: none; stroke-opacity: 0; stroke: white; stroke-width: 15px;"/><rect x="-6" y="-6" width="1241" height="267" class="djs-outline" style="fill: none;"/></g></g><g class="djs-group"><g class="djs-element djs-shape" data-element-id="Lane_0mtvcz5" style="display: block;" transform="translate(134 379)"><g class="djs-visual"><rect x="0" y="0" width="1229" height="297" rx="0" ry="0" style="stroke: black; stroke-width: 2px; fill: white; fill-opacity: 0.35;"/><text lineHeight="1.2" class="djs-label" style="font-family: Arial, sans-serif; font-size: 12px; font-weight: normal; fill: black;" transform="matrix(-1.83697e-16 -1 1 -1.83697e-16 0 297)"><tspan x="1.75" y="11.4">Responsable del marco conceptual riesgos sociedades </tspan><tspan x="86.140625" y="25.799999999999997">operadoras - Jefe DFIS</tspan></text></g><rect x="0" y="0" width="1229" height="297" class="djs-hit" style="fill: none; stroke-opacity: 0; stroke: white; stroke-width: 15px;"/><rect x="-6" y="-6" width="1241" height="309" class="djs-outline" style="fill: none;"/></g></g><g class="djs-group"><g class="djs-element djs-shape" data-element-id="Lane_03iuhqs" style="display: block;" transform="translate(134 676)"><g class="djs-visual"><rect x="0" y="0" width="1229" height="472" rx="0" ry="0" style="stroke: black; stroke-width: 2px; fill: white; fill-opacity: 0.35;"/><text lineHeight="1.2" class="djs-label" style="font-family: Arial, sans-serif; font-size: 12px; font-weight: normal; fill: black;" transform="matrix(-1.83697e-16 -1 1 -1.83697e-16 0 472)"><tspan x="129.796875" y="18.6">Revisor técnico - Jefe División o Unidad</tspan></text></g><rect x="0" y="0" width="1229" height="472" class="djs-hit" style="fill: none; stroke-opacity: 0; stroke: white; stroke-width: 15px;"/><rect x="-6" y="-6" width="1241" height="484" class="djs-outline" style="fill: none;"/></g></g><g class="djs-group"><g class="djs-element djs-connection" data-element-id="SequenceFlow_05hme7c" style="display: block;"><g class="djs-visual"><path d="m  1143,538L1192,538 " style="fill: none; stroke-width: 2px; stroke: black; stroke-linejoin: round; marker-end: url('#sequenceflow-end-white-black-9x9y1xub4as15odb9mvylutp4');"/></g><polyline points="1143,538 1192,538 " class="djs-hit" style="fill: none; stroke-opacity: 0; stroke: white; stroke-width: 15px;"/><rect x="1137" y="532" width="61" height="12" class="djs-outline" style="fill: none;"/></g></g><g class="djs-group"><g class="djs-element djs-connection" data-element-id="SequenceFlow_0ud6cvq" style="display: block;"><g class="djs-visual"><path d="m  306,292L306,373 L307,373 L307,454 " style="fill: none; stroke-width: 2px; stroke: black; stroke-linejoin: round; marker-end: url('#sequenceflow-end-white-black-9x9y1xub4as15odb9mvylutp4');"/></g><polyline points="306,292 306,373 307,373 307,454 " class="djs-hit" style="fill: none; stroke-opacity: 0; stroke: white; stroke-width: 15px;"/><rect x="300" y="286" width="13" height="174" class="djs-outline" style="fill: none;"/></g></g><g class="djs-group"><g class="djs-element djs-connection" data-element-id="SequenceFlow_0xqe00c" style="display: block;"><g class="djs-visual"><path d="m  306,892L306,1102 L1122,1102 L1122,578 " style="fill: none; stroke-width: 2px; stroke: black; stroke-linejoin: round; marker-end: url('#sequenceflow-end-white-black-9x9y1xub4as15odb9mvylutp4');"/></g><polyline points="306,892 306,1102 1122,1102 1122,578 " class="djs-hit" style="fill: none; stroke-opacity: 0; stroke: white; stroke-width: 15px;"/><rect x="300" y="572" width="828" height="536" class="djs-outline" style="fill: none;"/></g></g><g class="djs-group"><g class="djs-element djs-connection" data-element-id="SequenceFlow_0loxs3e" style="display: block;"><g class="djs-visual"><path d="m  542,892L542,1063 L1093,1063 L1093,578 " style="fill: none; stroke-width: 2px; stroke: black; stroke-linejoin: round; marker-end: url('#sequenceflow-end-white-black-9x9y1xub4as15odb9mvylutp4');"/></g><polyline points="542,892 542,1063 1093,1063 1093,578 " class="djs-hit" style="fill: none; stroke-opacity: 0; stroke: white; stroke-width: 15px;"/><rect x="536" y="572" width="563" height="497" class="djs-outline" style="fill: none;"/></g></g><g class="djs-group"><g class="djs-element djs-connection" data-element-id="SequenceFlow_1uhva3z" style="display: block;"><g class="djs-visual"><path d="m  787,892L787,1017 L1062,1017 L1062,578 " style="fill: none; stroke-width: 2px; stroke: black; stroke-linejoin: round; marker-end: url('#sequenceflow-end-white-black-9x9y1xub4as15odb9mvylutp4');"/></g><polyline points="787,892 787,1017 1062,1017 1062,578 " class="djs-hit" style="fill: none; stroke-opacity: 0; stroke: white; stroke-width: 15px;"/><rect x="781" y="572" width="287" height="451" class="djs-outline" style="fill: none;"/></g></g><g class="djs-group"><g class="djs-element djs-connection" data-element-id="SequenceFlow_0atphph" style="display: block;"><g class="djs-visual"><path d="m  332,613L787,613 L787,812 " style="fill: none; stroke-width: 2px; stroke: black; stroke-linejoin: round; marker-end: url('#sequenceflow-end-white-black-9x9y1xub4as15odb9mvylutp4');"/></g><polyline points="332,613 787,613 787,812 " class="djs-hit" style="fill: none; stroke-opacity: 0; stroke: white; stroke-width: 15px;"/><rect x="326" y="607" width="467" height="211" class="djs-outline" style="fill: none;"/></g></g><g class="djs-group"><g class="djs-element djs-connection" data-element-id="SequenceFlow_0wslfkx" style="display: block;"><g class="djs-visual"><path d="m  316,629L542,629 L542,812 " style="fill: none; stroke-width: 2px; stroke: black; stroke-linejoin: round; marker-end: url('#sequenceflow-end-white-black-9x9y1xub4as15odb9mvylutp4');"/></g><polyline points="316,629 542,629 542,812 " class="djs-hit" style="fill: none; stroke-opacity: 0; stroke: white; stroke-width: 15px;"/><rect x="310" y="623" width="238" height="195" class="djs-outline" style="fill: none;"/></g></g><g class="djs-group"><g class="djs-element djs-connection" data-element-id="SequenceFlow_0426esc" style="display: block;"><g class="djs-visual"><path d="m  307,638L307,725 L306,725 L306,812 " style="fill: none; stroke-width: 2px; stroke: black; stroke-linejoin: round; marker-end: url('#sequenceflow-end-white-black-9x9y1xub4as15odb9mvylutp4');"/></g><polyline points="307,638 307,725 306,725 306,812 " class="djs-hit" style="fill: none; stroke-opacity: 0; stroke: white; stroke-width: 15px;"/><rect x="300" y="632" width="13" height="186" class="djs-outline" style="fill: none;"/></g></g><g class="djs-group"><g class="djs-element djs-connection" data-element-id="SequenceFlow_1dp20on" style="display: block;"><g class="djs-visual"><path d="m  307,534L306,589 " style="fill: none; stroke-width: 2px; stroke: black; stroke-linejoin: round; marker-end: url('#sequenceflow-end-white-black-9x9y1xub4as15odb9mvylutp4');"/></g><polyline points="307,534 306,589 " class="djs-hit" style="fill: none; stroke-opacity: 0; stroke: white; stroke-width: 15px;"/><rect x="300" y="528" width="13" height="67" class="djs-outline" style="fill: none;"/></g></g><g class="djs-group"><g class="djs-element djs-connection" data-element-id="SequenceFlow_0e88sur" style="display: block;"><g class="djs-visual"><path d="m  227,253L242,253 L242,254 L256,254 " style="fill: none; stroke-width: 2px; stroke: black; stroke-linejoin: round; marker-end: url('#sequenceflow-end-white-black-9x9y1xub4as15odb9mvylutp4');"/></g><polyline points="227,253 242,253 242,254 256,254 " class="djs-hit" style="fill: none; stroke-opacity: 0; stroke: white; stroke-width: 15px;"/><rect x="221" y="247" width="41" height="13" class="djs-outline" style="fill: none;"/></g></g><g class="djs-group"><g class="djs-element djs-shape" data-element-id="ExclusiveGateway_13hfm5j" style="display: block;" transform="translate(282 588)"><g class="djs-visual"><polygon points="25,0 50,25 25,50 0,25" style="stroke: black; stroke-width: 2px; fill: white; fill-opacity: 0.95;"/><path d="m 23,10 0,12.5 -12.5,0 0,5 12.5,0 0,12.5 5,0 0,-12.5 12.5,0 0,-5 -12.5,0 0,-12.5 -5,0 z" style="fill: black; stroke-width: 1px; stroke: black;"/></g><rect x="0" y="0" width="50" height="50" class="djs-hit" style="fill: none; stroke-opacity: 0; stroke: white; stroke-width: 15px;"/><rect x="-6" y="-6" width="62" height="62" class="djs-outline" style="fill: none;"/></g></g><g class="djs-group"><g class="djs-element djs-shape" data-element-id="Task_1hnhloi" style="display: block;" transform="translate(257 454)"><g class="djs-visual"><rect x="0" y="0" width="100" height="80" rx="10" ry="10" style="stroke: black; stroke-width: 2px; fill: white; fill-opacity: 0.95;"/><text lineHeight="1.2" class="djs-label" style="font-family: Arial, sans-serif; font-size: 12px; font-weight: normal; fill: black;"><tspan x="26.8203125" y="-21.200000000000017">Elaborar </tspan><tspan x="19.8203125" y="-6.8000000000000185">solicitud de </tspan><tspan x="5.1484375" y="7.59999999999998">información para</tspan><tspan x="12.484375" y="21.99999999999998">la elaboración </tspan><tspan x="23.5" y="36.39999999999998">del marco </tspan><tspan x="7.140625" y="50.799999999999976">conceptual para </tspan><tspan x="12.4921875" y="65.19999999999997">la clasficación </tspan><tspan x="13.8203125" y="79.59999999999997">de riesgos de </tspan><tspan x="10.3125" y="93.99999999999997">las sociedades </tspan><tspan x="19.6484375" y="108.39999999999998">operadoras</tspan></text></g><rect x="0" y="0" width="100" height="80" class="djs-hit" style="fill: none; stroke-opacity: 0; stroke: white; stroke-width: 15px;"/><rect x="-6" y="-6" width="112" height="92" class="djs-outline" style="fill: none;"/></g></g><g class="djs-group"><g class="djs-element djs-shape" data-element-id="DataObjectReference_1lp8m85" style="display: block;" transform="translate(399 466)"><g class="djs-visual"><path d="m 0,0 28.23529411764706,0 7.058823529411765,8.196721311475411 0,40.98360655737705 -35.294117647058826,0 0,-49.18032786885246 28.23529411764706,0 0,8.196721311475411 7.058823529411765,0" style="fill: white; stroke-width: 2px; stroke: black; fill-opacity: 0.95;"/></g><rect x="0" y="0" width="36" height="50" class="djs-hit" style="fill: none; stroke-opacity: 0; stroke: white; stroke-width: 15px;"/><rect x="-6" y="-6" width="48" height="62" class="djs-outline" style="fill: none;"/></g></g><g class="djs-group"><g class="djs-element djs-shape" data-element-id="DataObjectReference_1lp8m85_label" style="display: block;" transform="translate(456 434)"><g class="djs-visual"><text lineHeight="1.2" class="djs-label" style="font-family: Arial, sans-serif; font-size: 11px; font-weight: normal; fill: black;"><tspan x="15.2578125" y="9.899999999999999">Solicitud de </tspan><tspan x="2.7265625" y="23.099999999999998">información para </tspan><tspan x="0.296875" y="36.3">la elaboración del</tspan><tspan x="0" y="49.5">marco conceptual </tspan><tspan x="26.875" y="62.7">para la </tspan><tspan x="7.6171875" y="75.9">clasficación de </tspan><tspan x="9.5078125" y="89.10000000000001">riesgos de las </tspan><tspan x="15.6171875" y="102.30000000000001">sociedades </tspan><tspan x="15.6171875" y="115.50000000000001">operadoras</tspan></text></g><rect x="0" y="0" width="88" height="119" class="djs-hit" style="fill: none; stroke-opacity: 0; stroke: white; stroke-width: 15px;"/><rect x="-6" y="-6" width="100" height="131" class="djs-outline" style="fill: none;"/></g></g><g class="djs-group"><g class="djs-element djs-shape" data-element-id="Task_123j1jf" style="display: block;" transform="translate(1043 498)"><g class="djs-visual"><rect x="0" y="0" width="100" height="80" rx="10" ry="10" style="stroke: black; stroke-width: 2px; fill: white; fill-opacity: 0.95;"/><text lineHeight="1.2" class="djs-label" style="font-family: Arial, sans-serif; font-size: 12px; font-weight: normal; fill: black;"><tspan x="28.328125" y="36.4">Analizar </tspan><tspan x="18.828125" y="50.8">información</tspan></text></g><rect x="0" y="0" width="100" height="80" class="djs-hit" style="fill: none; stroke-opacity: 0; stroke: white; stroke-width: 15px;"/><rect x="-6" y="-6" width="112" height="92" class="djs-outline" style="fill: none;"/></g></g><g class="djs-group"><g class="djs-element djs-shape" data-element-id="DataObjectReference_0fglxuj" style="display: block;" transform="translate(889 778)"><g class="djs-visual"><path d="m 0,0 28.23529411764706,0 7.058823529411765,8.196721311475411 0,40.98360655737705 -35.294117647058826,0 0,-49.18032786885246 28.23529411764706,0 0,8.196721311475411 7.058823529411765,0" style="fill: white; stroke-width: 2px; stroke: black; fill-opacity: 0.95;"/></g><rect x="0" y="0" width="36" height="50" class="djs-hit" style="fill: none; stroke-opacity: 0; stroke: white; stroke-width: 15px;"/><rect x="-6" y="-6" width="48" height="62" class="djs-outline" style="fill: none;"/></g></g><g class="djs-group"><g class="djs-element djs-shape" data-element-id="DataObjectReference_0fglxuj_label" style="display: block;" transform="translate(868 832)"><g class="djs-visual"><text lineHeight="1.2" class="djs-label" style="font-family: Arial, sans-serif; font-size: 11px; font-weight: normal; fill: black;"><tspan x="10.953125" y="9.899999999999999">Respuesta a </tspan><tspan x="14.3125" y="23.099999999999998">solicitud de </tspan><tspan x="0.8671875" y="36.3">información para </tspan><tspan x="7.5859375" y="49.5">la elaboración </tspan><tspan x="17.6796875" y="62.7">del marco </tspan><tspan x="2.6953125" y="75.9">conceptual para </tspan><tspan x="7.59375" y="89.10000000000001">la clasficación </tspan><tspan x="0" y="102.30000000000001">de riesgos de las</tspan><tspan x="13.7578125" y="115.50000000000001">sociedades </tspan><tspan x="13.7578125" y="128.70000000000002">operadoras </tspan><tspan x="22.5546875" y="141.9">- UGEC</tspan></text></g><rect x="0" y="0" width="84" height="146" class="djs-hit" style="fill: none; stroke-opacity: 0; stroke: white; stroke-width: 15px;"/><rect x="-6" y="-6" width="96" height="158" class="djs-outline" style="fill: none;"/></g></g><g class="djs-group"><g class="djs-element djs-shape" data-element-id="DataObjectReference_0vprxas" style="display: block;" transform="translate(653 761)"><g class="djs-visual"><path d="m 0,0 28.23529411764706,0 7.058823529411765,8.196721311475411 0,40.98360655737705 -35.294117647058826,0 0,-49.18032786885246 28.23529411764706,0 0,8.196721311475411 7.058823529411765,0" style="fill: white; stroke-width: 2px; stroke: black; fill-opacity: 0.95;"/></g><rect x="0" y="0" width="36" height="50" class="djs-hit" style="fill: none; stroke-opacity: 0; stroke: white; stroke-width: 15px;"/><rect x="-6" y="-6" width="48" height="62" class="djs-outline" style="fill: none;"/></g></g><g class="djs-group"><g class="djs-element djs-shape" data-element-id="DataObjectReference_0vprxas_label" style="display: block;" transform="translate(632 815)"><g class="djs-visual"><text lineHeight="1.2" class="djs-label" style="font-family: Arial, sans-serif; font-size: 11px; font-weight: normal; fill: black;"><tspan x="10.953125" y="9.899999999999999">Respuesta a </tspan><tspan x="14.3125" y="23.099999999999998">solicitud de </tspan><tspan x="0.8671875" y="36.3">información para </tspan><tspan x="7.5859375" y="49.5">la elaboración </tspan><tspan x="17.6796875" y="62.7">del marco </tspan><tspan x="2.6953125" y="75.9">conceptual para </tspan><tspan x="7.59375" y="89.10000000000001">la clasficación </tspan><tspan x="0" y="102.30000000000001">de riesgos de las</tspan><tspan x="13.7578125" y="115.50000000000001">sociedades </tspan><tspan x="13.7578125" y="128.70000000000002">operadoras </tspan><tspan x="23.359375" y="141.9">- DAUT</tspan></text></g><rect x="0" y="0" width="84" height="146" class="djs-hit" style="fill: none; stroke-opacity: 0; stroke: white; stroke-width: 15px;"/><rect x="-6" y="-6" width="96" height="158" class="djs-outline" style="fill: none;"/></g></g><g class="djs-group"><g class="djs-element djs-shape" data-element-id="DataObjectReference_00dfasy" style="display: block;" transform="translate(416 778)"><g class="djs-visual"><path d="m 0,0 28.23529411764706,0 7.058823529411765,8.196721311475411 0,40.98360655737705 -35.294117647058826,0 0,-49.18032786885246 28.23529411764706,0 0,8.196721311475411 7.058823529411765,0" style="fill: white; stroke-width: 2px; stroke: black; fill-opacity: 0.95;"/></g><rect x="0" y="0" width="36" height="50" class="djs-hit" style="fill: none; stroke-opacity: 0; stroke: white; stroke-width: 15px;"/><rect x="-6" y="-6" width="48" height="62" class="djs-outline" style="fill: none;"/></g></g><g class="djs-group"><g class="djs-element djs-shape" data-element-id="DataObjectReference_00dfasy_label" style="display: block;" transform="translate(396 832)"><g class="djs-visual"><text lineHeight="1.2" class="djs-label" style="font-family: Arial, sans-serif; font-size: 11px; font-weight: normal; fill: black;"><tspan x="10.953125" y="9.899999999999999">Respuesta a </tspan><tspan x="14.3125" y="23.099999999999998">solicitud de </tspan><tspan x="0.8671875" y="36.3">información para </tspan><tspan x="7.5859375" y="49.5">la elaboración </tspan><tspan x="17.6796875" y="62.7">del marco </tspan><tspan x="2.6953125" y="75.9">conceptual para </tspan><tspan x="7.59375" y="89.10000000000001">la clasficación </tspan><tspan x="0" y="102.30000000000001">de riesgos de las</tspan><tspan x="13.7578125" y="115.50000000000001">sociedades </tspan><tspan x="13.7578125" y="128.70000000000002">operadoras </tspan><tspan x="23.28125" y="141.9">- DJUR</tspan></text></g><rect x="0" y="0" width="84" height="146" class="djs-hit" style="fill: none; stroke-opacity: 0; stroke: white; stroke-width: 15px;"/><rect x="-6" y="-6" width="96" height="158" class="djs-outline" style="fill: none;"/></g></g><g class="djs-group"><g class="djs-element djs-shape" data-element-id="Task_1x21fi8" style="display: block;" transform="translate(256 812)"><g class="djs-visual"><rect x="0" y="0" width="100" height="80" rx="10" ry="10" style="stroke: black; stroke-width: 2px; fill: white; fill-opacity: 0.95;"/><text lineHeight="1.2" class="djs-label" style="font-family: Arial, sans-serif; font-size: 12px; font-weight: normal; fill: black;"><tspan x="26.8203125" y="-35.60000000000002">Elaborar </tspan><tspan x="18.484375" y="-21.200000000000024">respuesta a </tspan><tspan x="19.8203125" y="-6.800000000000026">solicitud de </tspan><tspan x="5.1484375" y="7.599999999999973">información para</tspan><tspan x="12.484375" y="21.99999999999997">la elaboración </tspan><tspan x="23.5" y="36.39999999999997">del marco </tspan><tspan x="7.140625" y="50.79999999999997">conceptual para </tspan><tspan x="12.4921875" y="65.19999999999996">la clasficación </tspan><tspan x="13.8203125" y="79.59999999999997">de riesgos de </tspan><tspan x="10.3125" y="93.99999999999997">las sociedades </tspan><tspan x="19.6484375" y="108.39999999999998">operadoras </tspan><tspan x="30.171875" y="122.79999999999998">- DJUR</tspan></text></g><rect x="0" y="0" width="100" height="80" class="djs-hit" style="fill: none; stroke-opacity: 0; stroke: white; stroke-width: 15px;"/><rect x="-6" y="-6" width="112" height="92" class="djs-outline" style="fill: none;"/></g></g><g class="djs-group"><g class="djs-element djs-shape" data-element-id="Task_0euhfql" style="display: block;" transform="translate(492 812)"><g class="djs-visual"><rect x="0" y="0" width="100" height="80" rx="10" ry="10" style="stroke: black; stroke-width: 2px; fill: white; fill-opacity: 0.95;"/><text lineHeight="1.2" class="djs-label" style="font-family: Arial, sans-serif; font-size: 12px; font-weight: normal; fill: black;"><tspan x="26.8203125" y="-35.60000000000002">Elaborar </tspan><tspan x="18.484375" y="-21.200000000000024">respuesta a </tspan><tspan x="19.8203125" y="-6.800000000000026">solicitud de </tspan><tspan x="5.1484375" y="7.599999999999973">información para</tspan><tspan x="12.484375" y="21.99999999999997">la elaboración </tspan><tspan x="23.5" y="36.39999999999997">del marco </tspan><tspan x="7.140625" y="50.79999999999997">conceptual para </tspan><tspan x="12.4921875" y="65.19999999999996">la clasficación </tspan><tspan x="13.8203125" y="79.59999999999997">de riesgos de </tspan><tspan x="10.3125" y="93.99999999999997">las sociedades </tspan><tspan x="19.6484375" y="108.39999999999998">operadoras </tspan><tspan x="29.671875" y="122.79999999999998">- DAUT</tspan></text></g><rect x="0" y="0" width="100" height="80" class="djs-hit" style="fill: none; stroke-opacity: 0; stroke: white; stroke-width: 15px;"/><rect x="-6" y="-6" width="112" height="92" class="djs-outline" style="fill: none;"/></g></g><g class="djs-group"><g class="djs-element djs-shape" data-element-id="Task_00bxr6x" style="display: block;" transform="translate(737 812)"><g class="djs-visual"><rect x="0" y="0" width="100" height="80" rx="10" ry="10" style="stroke: black; stroke-width: 2px; fill: white; fill-opacity: 0.95;"/><text lineHeight="1.2" class="djs-label" style="font-family: Arial, sans-serif; font-size: 12px; font-weight: normal; fill: black;"><tspan x="26.8203125" y="-35.60000000000002">Elaborar </tspan><tspan x="18.484375" y="-21.200000000000024">respuesta a </tspan><tspan x="19.8203125" y="-6.800000000000026">solicitud de </tspan><tspan x="5.1484375" y="7.599999999999973">información para</tspan><tspan x="12.484375" y="21.99999999999997">la elaboración </tspan><tspan x="23.5" y="36.39999999999997">del marco </tspan><tspan x="7.140625" y="50.79999999999997">conceptual para </tspan><tspan x="12.4921875" y="65.19999999999996">la clasficación </tspan><tspan x="13.8203125" y="79.59999999999997">de riesgos de </tspan><tspan x="10.3125" y="93.99999999999997">las sociedades </tspan><tspan x="17.6484375" y="108.39999999999998">operadoras-</tspan><tspan x="32.5" y="122.79999999999998">UGEC</tspan></text></g><rect x="0" y="0" width="100" height="80" class="djs-hit" style="fill: none; stroke-opacity: 0; stroke: white; stroke-width: 15px;"/><rect x="-6" y="-6" width="112" height="92" class="djs-outline" style="fill: none;"/></g></g><g class="djs-group"><g class="djs-element djs-shape" data-element-id="EndEvent_0tw5hdx" style="display: block;" transform="translate(1192 520)"><g class="djs-visual"><circle cx="18" cy="18" r="18" style="stroke: black; stroke-width: 4px; fill: white; fill-opacity: 0.95;"/></g><rect x="0" y="0" width="36" height="36" class="djs-hit" style="fill: none; stroke-opacity: 0; stroke: white; stroke-width: 15px;"/><rect x="-6" y="-6" width="48" height="48" class="djs-outline" style="fill: none;"/></g></g><g class="djs-group"><g class="djs-element djs-shape" data-element-id="Task_0i3w7zo" style="display: block;" transform="translate(256 212)"><g class="djs-visual"><rect x="0" y="0" width="100" height="80" rx="10" ry="10" style="stroke: black; stroke-width: 2px; fill: white; fill-opacity: 0.95;"/><text lineHeight="1.2" class="djs-label" style="font-family: Arial, sans-serif; font-size: 12px; font-weight: normal; fill: black;"><tspan x="34.5" y="36.4">Crear </tspan><tspan x="20.484375" y="50.8">expediente</tspan></text></g><rect x="0" y="0" width="100" height="80" class="djs-hit" style="fill: none; stroke-opacity: 0; stroke: white; stroke-width: 15px;"/><rect x="-6" y="-6" width="112" height="92" class="djs-outline" style="fill: none;"/></g></g><g class="djs-group"><g class="djs-element djs-shape" data-element-id="StartEvent_1" style="display: block;" transform="translate(191 236)"><g class="djs-visual"><circle cx="18" cy="18" r="18" style="stroke: black; stroke-width: 2px; fill: white; fill-opacity: 0.95;"/></g><rect x="0" y="0" width="36" height="36" class="djs-hit" style="fill: none; stroke-opacity: 0; stroke: white; stroke-width: 15px;"/><rect x="-6" y="-6" width="48" height="48" class="djs-outline" style="fill: none;"/></g></g></g></g><g class="djs-group"><g class="djs-element djs-connection" data-element-id="DataOutputAssociation_1miawc7" style="display: block;"><g class="djs-visual"><polyline points="357,492 399,492 " style="fill: none; stroke: black; stroke-width: 2px; stroke-dasharray: 0.5, 5; stroke-linecap: round; stroke-linejoin: round; marker-end: url('#association-end-white-black-9x9y1xub4as15odb9mvylutp4');"/></g><polyline points="357,492 399,492 " class="djs-hit" style="fill: none; stroke-opacity: 0; stroke: white; stroke-width: 15px;"/><rect x="351" y="486" width="54" height="12" class="djs-outline" style="fill: none;"/></g></g><g class="djs-group"><g class="djs-element djs-connection" data-element-id="DataOutputAssociation_1cpkel3" style="display: block;"><g class="djs-visual"><polyline points="356,834 416,813 " style="fill: none; stroke: black; stroke-width: 2px; stroke-dasharray: 0.5, 5; stroke-linecap: round; stroke-linejoin: round; marker-end: url('#association-end-white-black-9x9y1xub4as15odb9mvylutp4');"/></g><polyline points="356,834 416,813 " class="djs-hit" style="fill: none; stroke-opacity: 0; stroke: white; stroke-width: 15px;"/><rect x="350" y="807" width="72" height="33" class="djs-outline" style="fill: none;"/></g></g><g class="djs-group"><g class="djs-element djs-connection" data-element-id="DataOutputAssociation_1ofynv4" style="display: block;"><g class="djs-visual"><polyline points="590,816 653,790 " style="fill: none; stroke: black; stroke-width: 2px; stroke-dasharray: 0.5, 5; stroke-linecap: round; stroke-linejoin: round; marker-end: url('#association-end-white-black-9x9y1xub4as15odb9mvylutp4');"/></g><polyline points="590,816 653,790 " class="djs-hit" style="fill: none; stroke-opacity: 0; stroke: white; stroke-width: 15px;"/><rect x="584" y="784" width="75" height="38" class="djs-outline" style="fill: none;"/></g></g><g class="djs-group"><g class="djs-element djs-connection" data-element-id="DataOutputAssociation_0e08lch" style="display: block;"><g class="djs-visual"><polyline points="837,835 889,818 " style="fill: none; stroke: black; stroke-width: 2px; stroke-dasharray: 0.5, 5; stroke-linecap: round; stroke-linejoin: round; marker-end: url('#association-end-white-black-9x9y1xub4as15odb9mvylutp4');"/></g><polyline points="837,835 889,818 " class="djs-hit" style="fill: none; stroke-opacity: 0; stroke: white; stroke-width: 15px;"/><rect x="831" y="812" width="64" height="29" class="djs-outline" style="fill: none;"/></g></g></svg>