<?xml version="1.0" encoding="utf-8"?>
<!-- created with bpmn-js / http://bpmn.io -->
<!DOCTYPE svg PUBLIC "-//W3C//DTD SVG 1.1//EN" "http://www.w3.org/Graphics/SVG/1.1/DTD/svg11.dtd">
<svg xmlns="http://www.w3.org/2000/svg" xmlns:xlink="http://www.w3.org/1999/xlink" width="761" height="726" viewBox="108 46 761 726" version="1.1"><defs><marker id="sequenceflow-end-white-black-3fi5fakng0q8gc11tttwy27fh" viewBox="0 0 20 20" refX="11" refY="10" markerWidth="10" markerHeight="10" orient="auto"><path d="M 1 5 L 11 10 L 1 15 Z" style="fill: black; stroke-width: 1px; stroke-linecap: round; stroke-dasharray: 10000, 1; stroke: black;"/></marker><marker id="association-end-white-black-3fi5fakng0q8gc11tttwy27fh" viewBox="0 0 20 20" refX="12" refY="10" markerWidth="10" markerHeight="10" orient="auto"><path d="M 1 5 L 11 10 L 1 15" style="fill: none; stroke-width: 1.5px; stroke-linecap: round; stroke-dasharray: 10000, 1; stroke: black;"/></marker></defs><g class="djs-group"><g class="djs-element djs-shape" data-element-id="Participant_09973hc" style="display: block;" transform="translate(114 52)"><g class="djs-visual"><rect x="0" y="0" width="749" height="714" rx="0" ry="0" style="stroke: black; stroke-width: 2px; fill: white; fill-opacity: 0.95;"/><polyline points="30,0 30,714 " style="fill: none; stroke: black; stroke-width: 2px;"/><text lineHeight="1.2" class="djs-label" style="font-family: sans-serif; font-size: 12px; font-weight: normal; fill: black;" transform="matrix(-1.83697e-16 -1 1 -1.83697e-16 0 714)"><tspan x="230.9375" y="18.6">Modificación del plan de desarrollo de sistemas</tspan></text></g><rect x="0" y="0" width="749" height="714" class="djs-hit" style="fill: none; stroke-opacity: 0; stroke: white; stroke-width: 15px;"/><rect x="-6" y="-6" width="761" height="726" class="djs-outline" style="fill: none;"/></g><g class="djs-children"><g class="djs-group"><g class="djs-element djs-shape" data-element-id="Lane_0ju16q3" style="display: block;" transform="translate(144 603)"><g class="djs-visual"><rect x="0" y="0" width="719" height="163" rx="0" ry="0" style="stroke: black; stroke-width: 2px; fill: white; fill-opacity: 0.35;"/><text lineHeight="1.2" class="djs-label" style="font-family: sans-serif; font-size: 12px; font-weight: normal; fill: black;" transform="matrix(-1.83697e-16 -1 1 -1.83697e-16 0 163)"><tspan x="41.140625" y="18.6">Aprobador final</tspan></text></g><rect x="0" y="0" width="719" height="163" class="djs-hit" style="fill: none; stroke-opacity: 0; stroke: white; stroke-width: 15px;"/><rect x="-6" y="-6" width="731" height="175" class="djs-outline" style="fill: none;"/></g></g><g class="djs-group"><g class="djs-element djs-shape" data-element-id="Lane_0d37665" style="display: block;" transform="translate(144 52)"><g class="djs-visual"><rect x="0" y="0" width="719" height="155" rx="0" ry="0" style="stroke: black; stroke-width: 2px; fill: white; fill-opacity: 0.35;"/><text lineHeight="1.2" class="djs-label" style="font-family: sans-serif; font-size: 12px; font-weight: normal; fill: black;" transform="matrix(-1.83697e-16 -1 1 -1.83697e-16 0 155)"><tspan x="32.484375" y="11.4">Administrador de </tspan><tspan x="44.8203125" y="25.799999999999997">documentos</tspan></text></g><rect x="0" y="0" width="719" height="155" class="djs-hit" style="fill: none; stroke-opacity: 0; stroke: white; stroke-width: 15px;"/><rect x="-6" y="-6" width="731" height="167" class="djs-outline" style="fill: none;"/></g></g><g class="djs-group"><g class="djs-element djs-shape" data-element-id="Lane_1pvbelm" style="display: block;" transform="translate(144 207)"><g class="djs-visual"><rect x="0" y="0" width="719" height="210" rx="0" ry="0" style="stroke: black; stroke-width: 2px; fill: white; fill-opacity: 0.35;"/><text lineHeight="1.2" class="djs-label" style="font-family: sans-serif; font-size: 12px; font-weight: normal; fill: black;" transform="matrix(-1.83697e-16 -1 1 -1.83697e-16 0 210)"><tspan x="8.125" y="18.6">Analista del plan - Profesional UTDP</tspan></text></g><rect x="0" y="0" width="719" height="210" class="djs-hit" style="fill: none; stroke-opacity: 0; stroke: white; stroke-width: 15px;"/><rect x="-6" y="-6" width="731" height="222" class="djs-outline" style="fill: none;"/></g></g><g class="djs-group"><g class="djs-element djs-shape" data-element-id="Lane_0mtvcz5" style="display: block;" transform="translate(144 417)"><g class="djs-visual"><rect x="0" y="0" width="719" height="186" rx="0" ry="0" style="stroke: black; stroke-width: 2px; fill: white; fill-opacity: 0.35;"/><text lineHeight="1.2" class="djs-label" style="font-family: sans-serif; font-size: 12px; font-weight: normal; fill: black;" transform="matrix(-1.83697e-16 -1 1 -1.83697e-16 0 186)"><tspan x="0.625" y="18.6">Responsable del plan - Jefe UTDP</tspan></text></g><rect x="0" y="0" width="719" height="186" class="djs-hit" style="fill: none; stroke-opacity: 0; stroke: white; stroke-width: 15px;"/><rect x="-6" y="-6" width="731" height="198" class="djs-outline" style="fill: none;"/></g></g><g class="djs-group"><g class="djs-element djs-connection" data-element-id="SequenceFlow_0767zsn" style="display: block;"><g class="djs-visual"><path d="m  739,520L766,520 " style="fill: none; stroke-width: 2px; stroke: black; stroke-linejoin: round; marker-end: url('#sequenceflow-end-white-black-3fi5fakng0q8gc11tttwy27fh');"/></g><polyline points="739,520 766,520 " class="djs-hit" style="fill: none; stroke-opacity: 0; stroke: white; stroke-width: 15px;"/><rect x="733" y="514" width="39" height="12" class="djs-outline" style="fill: none;"/></g></g><g class="djs-group"><g class="djs-element djs-connection" data-element-id="SequenceFlow_1tunurl" style="display: block;"><g class="djs-visual"><path d="m  333,356L333,457 " style="fill: none; stroke-width: 2px; stroke: black; stroke-linejoin: round; marker-end: url('#sequenceflow-end-white-black-3fi5fakng0q8gc11tttwy27fh');"/></g><polyline points="333,356 333,457 " class="djs-hit" style="fill: none; stroke-opacity: 0; stroke: white; stroke-width: 15px;"/><rect x="327" y="350" width="12" height="113" class="djs-outline" style="fill: none;"/></g></g><g class="djs-group"><g class="djs-element djs-connection" data-element-id="SequenceFlow_1vltpfk" style="display: block;"><g class="djs-visual"><path d="m  332,186L333,276 " style="fill: none; stroke-width: 2px; stroke: black; stroke-linejoin: round; marker-end: url('#sequenceflow-end-white-black-3fi5fakng0q8gc11tttwy27fh');"/></g><polyline points="332,186 333,276 " class="djs-hit" style="fill: none; stroke-opacity: 0; stroke: white; stroke-width: 15px;"/><rect x="326" y="180" width="13" height="102" class="djs-outline" style="fill: none;"/></g></g><g class="djs-group"><g class="djs-element djs-connection" data-element-id="SequenceFlow_0e88sur" style="display: block;"><g class="djs-visual"><path d="m  246,148L282,148 " style="fill: none; stroke-width: 2px; stroke: black; stroke-linejoin: round; marker-end: url('#sequenceflow-end-white-black-3fi5fakng0q8gc11tttwy27fh');"/></g><polyline points="246,148 282,148 " class="djs-hit" style="fill: none; stroke-opacity: 0; stroke: white; stroke-width: 15px;"/><rect x="240" y="142" width="48" height="12" class="djs-outline" style="fill: none;"/></g></g><g class="djs-group"><g class="djs-element djs-connection" data-element-id="SequenceFlow_0b1mr0o" style="display: block;"><g class="djs-visual"><path d="m  333,537L332,642 " style="fill: none; stroke-width: 2px; stroke: black; stroke-linejoin: round; marker-end: url('#sequenceflow-end-white-black-3fi5fakng0q8gc11tttwy27fh');"/></g><polyline points="333,537 332,642 " class="djs-hit" style="fill: none; stroke-opacity: 0; stroke: white; stroke-width: 15px;"/><rect x="326" y="531" width="13" height="117" class="djs-outline" style="fill: none;"/></g></g><g class="djs-group"><g class="djs-element djs-connection" data-element-id="SequenceFlow_1mozpw8" style="display: block;"><g class="djs-visual"><path d="m  382,682L689,682 L689,560 " style="fill: none; stroke-width: 2px; stroke: black; stroke-linejoin: round; marker-end: url('#sequenceflow-end-white-black-3fi5fakng0q8gc11tttwy27fh');"/></g><polyline points="382,682 689,682 689,560 " class="djs-hit" style="fill: none; stroke-opacity: 0; stroke: white; stroke-width: 15px;"/><rect x="376" y="554" width="319" height="134" class="djs-outline" style="fill: none;"/></g></g><g class="djs-group"><g class="djs-element djs-shape" data-element-id="Task_0i3w7zo" style="display: block;" transform="translate(282 106)"><g class="djs-visual"><rect x="0" y="0" width="100" height="80" rx="10" ry="10" style="stroke: black; stroke-width: 2px; fill: white; fill-opacity: 0.95;"/><text lineHeight="1.2" class="djs-label" style="font-family: sans-serif; font-size: 12px; font-weight: normal; fill: black;"><tspan x="3.8125" y="43.599999999999994">Crear expediente</tspan></text></g><rect x="0" y="0" width="100" height="80" class="djs-hit" style="fill: none; stroke-opacity: 0; stroke: white; stroke-width: 15px;"/><rect x="-6" y="-6" width="112" height="92" class="djs-outline" style="fill: none;"/></g></g><g class="djs-group"><g class="djs-element djs-shape" data-element-id="StartEvent_1" style="display: block;" transform="translate(210 131)"><g class="djs-visual"><circle cx="18" cy="18" r="18" style="stroke: black; stroke-width: 2px; fill: white; fill-opacity: 0.95;"/></g><rect x="0" y="0" width="36" height="36" class="djs-hit" style="fill: none; stroke-opacity: 0; stroke: white; stroke-width: 15px;"/><rect x="-6" y="-6" width="48" height="48" class="djs-outline" style="fill: none;"/></g></g><g class="djs-group"><g class="djs-element djs-shape" data-element-id="Task_0q4s9mo" style="display: block;" transform="translate(283 276)"><g class="djs-visual"><rect x="0" y="0" width="100" height="80" rx="10" ry="10" style="stroke: black; stroke-width: 2px; fill: white; fill-opacity: 0.95;"/><text lineHeight="1.2" class="djs-label" style="font-family: sans-serif; font-size: 12px; font-weight: normal; fill: black;"><tspan x="26.8203125" y="14.799999999999999">Elaborar </tspan><tspan x="14.8125" y="29.199999999999996">propuesta de </tspan><tspan x="10.1484375" y="43.599999999999994">modificación al </tspan><tspan x="2.140625" y="57.99999999999999">plan de desarrollo</tspan><tspan x="17.9921875" y="72.39999999999999">de sistemas</tspan></text></g><rect x="0" y="0" width="100" height="80" class="djs-hit" style="fill: none; stroke-opacity: 0; stroke: white; stroke-width: 15px;"/><rect x="-6" y="-6" width="112" height="92" class="djs-outline" style="fill: none;"/></g></g><g class="djs-group"><g class="djs-element djs-shape" data-element-id="DataObjectReference_1h6m17q" style="display: block;" transform="translate(428 237)"><g class="djs-visual"><path d="m 0,0 28.23529411764706,0 7.058823529411765,8.196721311475411 0,40.98360655737705 -35.294117647058826,0 0,-49.18032786885246 28.23529411764706,0 0,8.196721311475411 7.058823529411765,0" style="fill: white; stroke-width: 2px; stroke: black; fill-opacity: 0.95;"/></g><rect x="0" y="0" width="36" height="50" class="djs-hit" style="fill: none; stroke-opacity: 0; stroke: white; stroke-width: 15px;"/><rect x="-6" y="-6" width="48" height="62" class="djs-outline" style="fill: none;"/></g></g><g class="djs-group"><g class="djs-element djs-shape" data-element-id="DataObjectReference_1h6m17q_label" style="display: block;" transform="translate(474 232)"><g class="djs-visual"><text lineHeight="1.2" class="djs-label" style="font-family: sans-serif; font-size: 11px; font-weight: normal; fill: black;"><tspan x="9.796875" y="9.899999999999999">Formulario de </tspan><tspan x="7.0625" y="23.099999999999998">modificación al </tspan><tspan x="0" y="36.3">plan de desarrollo</tspan><tspan x="14.125" y="49.5">de sistemas</tspan></text></g><rect x="0" y="0" width="88" height="53" class="djs-hit" style="fill: none; stroke-opacity: 0; stroke: white; stroke-width: 15px;"/><rect x="-6" y="-6" width="100" height="65" class="djs-outline" style="fill: none;"/></g></g><g class="djs-group"><g class="djs-element djs-shape" data-element-id="DataObjectReference_1e4rsae" style="display: block;" transform="translate(428 321)"><g class="djs-visual"><path d="m 0,0 28.23529411764706,0 7.058823529411765,8.196721311475411 0,40.98360655737705 -35.294117647058826,0 0,-49.18032786885246 28.23529411764706,0 0,8.196721311475411 7.058823529411765,0" style="fill: white; stroke-width: 2px; stroke: black; fill-opacity: 0.95;"/></g><rect x="0" y="0" width="36" height="50" class="djs-hit" style="fill: none; stroke-opacity: 0; stroke: white; stroke-width: 15px;"/><rect x="-6" y="-6" width="48" height="62" class="djs-outline" style="fill: none;"/></g></g><g class="djs-group"><g class="djs-element djs-shape" data-element-id="DataObjectReference_1e4rsae_label" style="display: block;" transform="translate(492 334)"><g class="djs-visual"><text lineHeight="1.2" class="djs-label" style="font-family: sans-serif; font-size: 11px; font-weight: normal; fill: black;"><tspan x="13.1484375" y="9.899999999999999">Plan de </tspan><tspan x="0" y="23.099999999999998">desarrollo de </tspan><tspan x="9.8515625" y="36.3">sistemas</tspan></text></g><rect x="0" y="0" width="64" height="40" class="djs-hit" style="fill: none; stroke-opacity: 0; stroke: white; stroke-width: 15px;"/><rect x="-6" y="-6" width="76" height="52" class="djs-outline" style="fill: none;"/></g></g><g class="djs-group"><g class="djs-element djs-shape" data-element-id="Task_1hnhloi" style="display: block;" transform="translate(283 457)"><g class="djs-visual"><rect x="0" y="0" width="100" height="80" rx="10" ry="10" style="stroke: black; stroke-width: 2px; fill: white; fill-opacity: 0.95;"/><text lineHeight="1.2" class="djs-label" style="font-family: sans-serif; font-size: 12px; font-weight: normal; fill: black;"><tspan x="10.1640625" y="14.799999999999999">Revisar y visar </tspan><tspan x="14.8125" y="29.199999999999996">propuesta de </tspan><tspan x="10.1484375" y="43.599999999999994">modificación al </tspan><tspan x="2.140625" y="57.99999999999999">plan de desarrollo</tspan><tspan x="17.9921875" y="72.39999999999999">de sistemas</tspan></text></g><rect x="0" y="0" width="100" height="80" class="djs-hit" style="fill: none; stroke-opacity: 0; stroke: white; stroke-width: 15px;"/><rect x="-6" y="-6" width="112" height="92" class="djs-outline" style="fill: none;"/></g></g><g class="djs-group"><g class="djs-element djs-shape" data-element-id="DataObjectReference_1lp8m85" style="display: block;" transform="translate(428 437)"><g class="djs-visual"><path d="m 0,0 28.23529411764706,0 7.058823529411765,8.196721311475411 0,40.98360655737705 -35.294117647058826,0 0,-49.18032786885246 28.23529411764706,0 0,8.196721311475411 7.058823529411765,0" style="fill: white; stroke-width: 2px; stroke: black; fill-opacity: 0.95;"/></g><rect x="0" y="0" width="36" height="50" class="djs-hit" style="fill: none; stroke-opacity: 0; stroke: white; stroke-width: 15px;"/><rect x="-6" y="-6" width="48" height="62" class="djs-outline" style="fill: none;"/></g></g><g class="djs-group"><g class="djs-element djs-shape" data-element-id="DataObjectReference_1lp8m85_label" style="display: block;" transform="translate(484 440)"><g class="djs-visual"><text lineHeight="1.2" class="djs-label" style="font-family: sans-serif; font-size: 11px; font-weight: normal; fill: black;"><tspan x="9.796875" y="9.899999999999999">Formulario de </tspan><tspan x="7.0625" y="23.099999999999998">modificación al </tspan><tspan x="0" y="36.3">plan de desarrollo</tspan><tspan x="14.125" y="49.5">de sistemas</tspan></text></g><rect x="0" y="0" width="88" height="53" class="djs-hit" style="fill: none; stroke-opacity: 0; stroke: white; stroke-width: 15px;"/><rect x="-6" y="-6" width="100" height="65" class="djs-outline" style="fill: none;"/></g></g><g class="djs-group"><g class="djs-element djs-shape" data-element-id="DataObjectReference_1kqfge3" style="display: block;" transform="translate(428 522)"><g class="djs-visual"><path d="m 0,0 28.23529411764706,0 7.058823529411765,8.196721311475411 0,40.98360655737705 -35.294117647058826,0 0,-49.18032786885246 28.23529411764706,0 0,8.196721311475411 7.058823529411765,0" style="fill: white; stroke-width: 2px; stroke: black; fill-opacity: 0.95;"/></g><rect x="0" y="0" width="36" height="50" class="djs-hit" style="fill: none; stroke-opacity: 0; stroke: white; stroke-width: 15px;"/><rect x="-6" y="-6" width="48" height="62" class="djs-outline" style="fill: none;"/></g></g><g class="djs-group"><g class="djs-element djs-shape" data-element-id="DataObjectReference_1kqfge3_label" style="display: block;" transform="translate(492 535)"><g class="djs-visual"><text lineHeight="1.2" class="djs-label" style="font-family: sans-serif; font-size: 11px; font-weight: normal; fill: black;"><tspan x="13.1484375" y="9.899999999999999">Plan de </tspan><tspan x="0" y="23.099999999999998">desarrollo de </tspan><tspan x="9.8515625" y="36.3">sistemas</tspan></text></g><rect x="0" y="0" width="64" height="40" class="djs-hit" style="fill: none; stroke-opacity: 0; stroke: white; stroke-width: 15px;"/><rect x="-6" y="-6" width="76" height="52" class="djs-outline" style="fill: none;"/></g></g><g class="djs-group"><g class="djs-element djs-shape" data-element-id="Task_0www22e" style="display: block;" transform="translate(639 480)"><g class="djs-visual"><rect x="0" y="0" width="100" height="80" rx="10" ry="10" style="stroke: black; stroke-width: 2px; fill: white; fill-opacity: 0.95;"/><text lineHeight="1.2" class="djs-label" style="font-family: sans-serif; font-size: 12px; font-weight: normal; fill: black;"><tspan x="26.5" y="36.4">Cerrar el </tspan><tspan x="20.484375" y="50.8">expediente</tspan></text></g><rect x="0" y="0" width="100" height="80" class="djs-hit" style="fill: none; stroke-opacity: 0; stroke: white; stroke-width: 15px;"/><rect x="-6" y="-6" width="112" height="92" class="djs-outline" style="fill: none;"/></g></g><g class="djs-group"><g class="djs-element djs-shape" data-element-id="EndEvent_0owuge5" style="display: block;" transform="translate(766 502)"><g class="djs-visual"><circle cx="18" cy="18" r="18" style="stroke: black; stroke-width: 4px; fill: white; fill-opacity: 0.95;"/></g><rect x="0" y="0" width="36" height="36" class="djs-hit" style="fill: none; stroke-opacity: 0; stroke: white; stroke-width: 15px;"/><rect x="-6" y="-6" width="48" height="48" class="djs-outline" style="fill: none;"/></g></g><g class="djs-group"><g class="djs-element djs-shape" data-element-id="Task_0ix0nz2" style="display: block;" transform="translate(282 642)"><g class="djs-visual"><rect x="0" y="0" width="100" height="80" rx="10" ry="10" style="stroke: black; stroke-width: 2px; fill: white; fill-opacity: 0.95;"/><text lineHeight="1.2" class="djs-label" style="font-family: sans-serif; font-size: 12px; font-weight: normal; fill: black;"><tspan x="2.1484375" y="14.799999999999999">Revisar y aprobar </tspan><tspan x="14.8125" y="29.199999999999996">propuesta de </tspan><tspan x="3.484375" y="43.599999999999994">modificación plan </tspan><tspan x="6.8125" y="57.99999999999999">de desarrollo de </tspan><tspan x="26.328125" y="72.39999999999999">sistemas</tspan></text></g><rect x="0" y="0" width="100" height="80" class="djs-hit" style="fill: none; stroke-opacity: 0; stroke: white; stroke-width: 15px;"/><rect x="-6" y="-6" width="112" height="92" class="djs-outline" style="fill: none;"/></g></g><g class="djs-group"><g class="djs-element djs-shape" data-element-id="DataObjectReference_07l5x5e" style="display: block;" transform="translate(200 649)"><g class="djs-visual"><path d="m 0,0 28.23529411764706,0 7.058823529411765,8.196721311475411 0,40.98360655737705 -35.294117647058826,0 0,-49.18032786885246 28.23529411764706,0 0,8.196721311475411 7.058823529411765,0" style="fill: white; stroke-width: 2px; stroke: black; fill-opacity: 0.95;"/></g><rect x="0" y="0" width="36" height="50" class="djs-hit" style="fill: none; stroke-opacity: 0; stroke: white; stroke-width: 15px;"/><rect x="-6" y="-6" width="48" height="62" class="djs-outline" style="fill: none;"/></g></g><g class="djs-group"><g class="djs-element djs-shape" data-element-id="DataObjectReference_07l5x5e_label" style="display: block;" transform="translate(189 703)"><g class="djs-visual"><text lineHeight="1.2" class="djs-label" style="font-family: sans-serif; font-size: 11px; font-weight: normal; fill: black;"><tspan x="13.1484375" y="9.899999999999999">Plan de </tspan><tspan x="0" y="23.099999999999998">desarrollo de </tspan><tspan x="9.8515625" y="36.3">sistemas</tspan></text></g><rect x="0" y="0" width="64" height="40" class="djs-hit" style="fill: none; stroke-opacity: 0; stroke: white; stroke-width: 15px;"/><rect x="-6" y="-6" width="76" height="52" class="djs-outline" style="fill: none;"/></g></g></g></g><g class="djs-group"><g class="djs-element djs-connection" data-element-id="DataOutputAssociation_047jog7" style="display: block;"><g class="djs-visual"><polyline points="383,326 428,349 " style="fill: none; stroke: black; stroke-width: 2px; stroke-dasharray: 0.5, 5; stroke-linecap: round; stroke-linejoin: round; marker-end: url('#association-end-white-black-3fi5fakng0q8gc11tttwy27fh');"/></g><polyline points="383,326 428,349 " class="djs-hit" style="fill: none; stroke-opacity: 0; stroke: white; stroke-width: 15px;"/><rect x="377" y="320" width="57" height="35" class="djs-outline" style="fill: none;"/></g></g><g class="djs-group"><g class="djs-element djs-connection" data-element-id="DataOutputAssociation_0e0340q" style="display: block;"><g class="djs-visual"><polyline points="383,287 428,260 " style="fill: none; stroke: black; stroke-width: 2px; stroke-dasharray: 0.5, 5; stroke-linecap: round; stroke-linejoin: round; marker-end: url('#association-end-white-black-3fi5fakng0q8gc11tttwy27fh');"/></g><polyline points="383,287 428,260 " class="djs-hit" style="fill: none; stroke-opacity: 0; stroke: white; stroke-width: 15px;"/><rect x="377" y="254" width="57" height="39" class="djs-outline" style="fill: none;"/></g></g><g class="djs-group"><g class="djs-element djs-connection" data-element-id="DataOutputAssociation_1qjd5mf" style="display: block;"><g class="djs-visual"><polyline points="383,522 428,533 " style="fill: none; stroke: black; stroke-width: 2px; stroke-dasharray: 0.5, 5; stroke-linecap: round; stroke-linejoin: round; marker-end: url('#association-end-white-black-3fi5fakng0q8gc11tttwy27fh');"/></g><polyline points="383,522 428,533 " class="djs-hit" style="fill: none; stroke-opacity: 0; stroke: white; stroke-width: 15px;"/><rect x="377" y="516" width="57" height="23" class="djs-outline" style="fill: none;"/></g></g><g class="djs-group"><g class="djs-element djs-connection" data-element-id="DataOutputAssociation_1miawc7" style="display: block;"><g class="djs-visual"><polyline points="383,481 428,468 " style="fill: none; stroke: black; stroke-width: 2px; stroke-dasharray: 0.5, 5; stroke-linecap: round; stroke-linejoin: round; marker-end: url('#association-end-white-black-3fi5fakng0q8gc11tttwy27fh');"/></g><polyline points="383,481 428,468 " class="djs-hit" style="fill: none; stroke-opacity: 0; stroke: white; stroke-width: 15px;"/><rect x="377" y="462" width="57" height="25" class="djs-outline" style="fill: none;"/></g></g><g class="djs-group"><g class="djs-element djs-connection" data-element-id="DataOutputAssociation_0aomrkw" style="display: block;"><g class="djs-visual"><polyline points="282,680 242,680 " style="fill: none; stroke: black; stroke-width: 2px; stroke-dasharray: 0.5, 5; stroke-linecap: round; stroke-linejoin: round; marker-end: url('#association-end-white-black-3fi5fakng0q8gc11tttwy27fh');"/></g><polyline points="282,680 242,680 " class="djs-hit" style="fill: none; stroke-opacity: 0; stroke: white; stroke-width: 15px;"/><rect x="236" y="674" width="52" height="12" class="djs-outline" style="fill: none;"/></g></g></svg>