<?xml version="1.0" encoding="utf-8"?>
<!-- created with bpmn-js / http://bpmn.io -->
<!DOCTYPE svg PUBLIC "-//W3C//DTD SVG 1.1//EN" "http://www.w3.org/Graphics/SVG/1.1/DTD/svg11.dtd">
<svg xmlns="http://www.w3.org/2000/svg" xmlns:xlink="http://www.w3.org/1999/xlink" width="1134" height="914" viewBox="273 -291 1134 914" version="1.1"><defs><marker id="sequenceflow-end-white-black" viewBox="0 0 20 20" refX="11" refY="10" markerWidth="10" markerHeight="10" orient="auto"><path d="M 1 5 L 11 10 L 1 15 Z" style="fill: black; stroke-width: 1px; stroke-linecap: round; stroke-dasharray: 10000, 1; stroke: black;"></path></marker><marker id="association-end-white-black" viewBox="0 0 20 20" refX="12" refY="10" markerWidth="10" markerHeight="10" orient="auto"><path d="M 1 5 L 11 10 L 1 15" style="fill: none; stroke-width: 1.5px; stroke-linecap: round; stroke-dasharray: 10000, 1; stroke: black;"></path></marker></defs><g class="djs-group"><g class="djs-element djs-shape" data-element-id="Participant_0ix6g6h" style="display: block;" transform="translate(279 -285)"><g class="djs-visual"><rect x="0" y="0" width="1122" height="902" rx="0" ry="0" style="stroke: black; stroke-width: 2px; fill: white; fill-opacity: 0.95;"/><polyline points="30,0 30,902 " style="fill: none; stroke: black; stroke-width: 2px;"/><text class="djs-label" style="font-family: Arial, sans-serif; font-size: 12px; fill: black;" transform="matrix(-1.83697e-16 -1 1 -1.83697e-16 0 902)"><tspan x="333" y="18.5">Autorización de práctica profesional y pago</tspan></text></g><rect x="0" y="0" width="1122" height="902" class="djs-hit" style="fill: none; stroke-opacity: 0; stroke: white; stroke-width: 15px;"/><rect x="-6" y="-6" width="1134" height="914" class="djs-outline" style="fill: none;"/></g><g class="djs-children"><g class="djs-group"><g class="djs-element djs-shape" data-element-id="Lane_0bxgzrg" style="display: block;" transform="translate(309 122)"><g class="djs-visual"><rect x="0" y="0" width="1092" height="140" rx="0" ry="0" style="stroke: black; stroke-width: 2px; fill: white;"/><text class="djs-label" style="font-family: Arial, sans-serif; font-size: 12px; fill: black;" transform="matrix(-1.83697e-16 -1 1 -1.83697e-16 0 140)"><tspan x="25" y="11.5">Responsable de </tspan><tspan x="10.9453125" y="25.5">contratos - Jefe UAYF</tspan></text></g><rect x="0" y="0" width="1092" height="140" class="djs-hit" style="fill: none; stroke-opacity: 0; stroke: white; stroke-width: 15px;"/><rect x="-6" y="-6" width="1104" height="152" class="djs-outline" style="fill: none;"/></g></g><g class="djs-group"><g class="djs-element djs-shape" data-element-id="Lane_0yugfl5" style="display: block;" transform="translate(309 -21)"><g class="djs-visual"><rect x="0" y="0" width="1092" height="143" rx="0" ry="0" style="stroke: black; stroke-width: 2px; fill: white;"/><text class="djs-label" style="font-family: Arial, sans-serif; font-size: 12px; fill: black;" transform="matrix(-1.83697e-16 -1 1 -1.83697e-16 0 143)"><tspan x="14" y="11.5">Analista de contratos </tspan><tspan x="19.4453125" y="25.5">- Profesional UAYF</tspan></text></g><rect x="0" y="0" width="1092" height="143" class="djs-hit" style="fill: none; stroke-opacity: 0; stroke: white; stroke-width: 15px;"/><rect x="-6" y="-6" width="1104" height="155" class="djs-outline" style="fill: none;"/></g></g><g class="djs-group"><g class="djs-element djs-shape" data-element-id="Lane_1h53fej" style="display: block;" transform="translate(309 -165)"><g class="djs-visual"><rect x="0" y="0" width="1092" height="144" rx="0" ry="0" style="stroke: black; stroke-width: 2px; fill: white;"/><text class="djs-label" style="font-family: Arial, sans-serif; font-size: 12px; fill: black;" transform="matrix(-1.83697e-16 -1 1 -1.83697e-16 0 144)"><tspan x="25" y="11.5">Administrador de </tspan><tspan x="38.5" y="25.5">documentos</tspan></text></g><rect x="0" y="0" width="1092" height="144" class="djs-hit" style="fill: none; stroke-opacity: 0; stroke: white; stroke-width: 15px;"/><rect x="-6" y="-6" width="1104" height="156" class="djs-outline" style="fill: none;"/></g></g><g class="djs-group"><g class="djs-element djs-shape" data-element-id="Lane_0fr3kza" style="display: block;" transform="translate(309 382)"><g class="djs-visual"><rect x="0" y="0" width="1092" height="235" rx="0" ry="0" style="stroke: black; stroke-width: 2px; fill: white;"/><text class="djs-label" style="font-family: Arial, sans-serif; font-size: 12px; fill: black;" transform="matrix(-1.83697e-16 -1 1 -1.83697e-16 0 235)"><tspan x="75" y="18.5">Aprobador final</tspan></text></g><rect x="0" y="0" width="1092" height="235" class="djs-hit" style="fill: none; stroke-opacity: 0; stroke: white; stroke-width: 15px;"/><rect x="-6" y="-6" width="1104" height="247" class="djs-outline" style="fill: none;"/></g></g><g class="djs-group"><g class="djs-element djs-shape" data-element-id="Lane_1vzxhpq" style="display: block;" transform="translate(309 262)"><g class="djs-visual"><rect x="0" y="0" width="1092" height="120" rx="0" ry="0" style="stroke: black; stroke-width: 2px; fill: white;"/><text class="djs-label" style="font-family: Arial, sans-serif; font-size: 12px; fill: black;" transform="matrix(-1.83697e-16 -1 1 -1.83697e-16 0 120)"><tspan x="7.2265625" y="18.5">Tramitador de firma</tspan></text></g><rect x="0" y="0" width="1092" height="120" class="djs-hit" style="fill: none; stroke-opacity: 0; stroke: white; stroke-width: 15px;"/><rect x="-6" y="-6" width="1104" height="132" class="djs-outline" style="fill: none;"/></g></g><g class="djs-group"><g class="djs-element djs-shape" data-element-id="Lane_0wx2mmc" style="display: block;" transform="translate(309 -285)"><g class="djs-visual"><rect x="0" y="0" width="1092" height="120" rx="0" ry="0" style="stroke: black; stroke-width: 2px; fill: white;"/><text class="djs-label" style="font-family: Arial, sans-serif; font-size: 12px; fill: black;" transform="matrix(-1.83697e-16 -1 1 -1.83697e-16 0 120)"><tspan x="29" y="11.5">Creador de </tspan><tspan x="29.5" y="25.5">expediente</tspan></text></g><rect x="0" y="0" width="1092" height="120" class="djs-hit" style="fill: none; stroke-opacity: 0; stroke: white; stroke-width: 15px;"/><rect x="-6" y="-6" width="1104" height="132" class="djs-outline" style="fill: none;"/></g></g><g class="djs-group"><g class="djs-element djs-shape" data-element-id="Task_1not5px" style="display: block;" transform="translate(443 -5)"><g class="djs-visual"><rect x="0" y="0" width="100" height="80" rx="10" ry="10" style="stroke: black; stroke-width: 2px; fill: white;"/><text class="djs-label" style="font-family: Arial, sans-serif; font-size: 12px; fill: black;"><tspan x="26" y="29.5">Elaborar </tspan><tspan x="14" y="43.5">propuesta de </tspan><tspan x="21.5" y="57.5">resolución</tspan></text></g><rect x="0" y="0" width="100" height="80" class="djs-hit" style="fill: none; stroke-opacity: 0; stroke: white; stroke-width: 15px;"/><rect x="-6" y="-6" width="112" height="92" class="djs-outline" style="fill: none;"/></g></g><g class="djs-group"><g class="djs-element djs-shape" data-element-id="DataObjectReference_0ortyac" style="display: block;" transform="translate(367 10)"><g class="djs-visual"><path d="m 0,0 28.23529411764706,0 7.058823529411765,8.196721311475411 0,40.98360655737705 -35.294117647058826,0 0,-49.18032786885246 28.23529411764706,0 0,8.196721311475411 7.058823529411765,0" style="fill: white; stroke-width: 2px; stroke: black;"/></g><rect x="0" y="0" width="36" height="50" class="djs-hit" style="fill: none; stroke-opacity: 0; stroke: white; stroke-width: 15px;"/><rect x="-6" y="-6" width="48" height="62" class="djs-outline" style="fill: none;"/></g></g><g class="djs-group"><g class="djs-element djs-shape" data-element-id="DataObjectReference_0ortyac_label" style="display: block;" transform="translate(343 64)"><g class="djs-visual"><text class="djs-label" style="font-family: Arial, sans-serif; font-size: 11px;"><tspan x="7" y="12">Resolución que </tspan><tspan x="4" y="24">autoriza práctica </tspan><tspan x="0" y="36">profesional y pago</tspan></text></g><rect x="0" y="0" width="89" height="36" class="djs-hit" style="fill: none; stroke-opacity: 0; stroke: white; stroke-width: 15px;"/><rect x="-6" y="-6" width="101" height="48" class="djs-outline" style="fill: none;"/></g></g><g class="djs-group"><g class="djs-element djs-shape" data-element-id="DataObjectReference_1lt68g9" style="display: block;" transform="translate(993 -130)"><g class="djs-visual"><path d="m 0,0 28.23529411764706,0 7.058823529411765,8.196721311475411 0,40.98360655737705 -35.294117647058826,0 0,-49.18032786885246 28.23529411764706,0 0,8.196721311475411 7.058823529411765,0" style="fill: white; stroke-width: 2px; stroke: black;"/></g><rect x="0" y="0" width="36" height="50" class="djs-hit" style="fill: none; stroke-opacity: 0; stroke: white; stroke-width: 15px;"/><rect x="-6" y="-6" width="48" height="62" class="djs-outline" style="fill: none;"/></g></g><g class="djs-group"><g class="djs-element djs-shape" data-element-id="DataObjectReference_1lt68g9_label" style="display: block;" transform="translate(969 -76)"><g class="djs-visual"><text class="djs-label" style="font-family: Arial, sans-serif; font-size: 11px;"><tspan x="7" y="12">Resolución que </tspan><tspan x="4" y="24">autoriza práctica </tspan><tspan x="0" y="36">profesional y pago</tspan></text></g><rect x="0" y="0" width="89" height="36" class="djs-hit" style="fill: none; stroke-opacity: 0; stroke: white; stroke-width: 15px;"/><rect x="-6" y="-6" width="101" height="48" class="djs-outline" style="fill: none;"/></g></g><g class="djs-group"><g class="djs-element djs-shape" data-element-id="Task_10968it" style="display: block;" transform="translate(1059 -145)"><g class="djs-visual"><rect x="0" y="0" width="100" height="80" rx="10" ry="10" style="stroke: black; stroke-width: 2px; fill: white;"/><text class="djs-label" style="font-family: Arial, sans-serif; font-size: 12px; fill: black;"><tspan x="6" y="22.5">Asignar número </tspan><tspan x="24" y="36.5">y fecha, y </tspan><tspan x="27" y="50.5">adjuntar </tspan><tspan x="19.5" y="64.5">documento</tspan></text></g><rect x="0" y="0" width="100" height="80" class="djs-hit" style="fill: none; stroke-opacity: 0; stroke: white; stroke-width: 15px;"/><rect x="-6" y="-6" width="112" height="92" class="djs-outline" style="fill: none;"/></g></g><g class="djs-group"><g class="djs-element djs-shape" data-element-id="DataObjectReference_0kfame0" style="display: block;" transform="translate(367 156)"><g class="djs-visual"><path d="m 0,0 28.23529411764706,0 7.058823529411765,8.196721311475411 0,40.98360655737705 -35.294117647058826,0 0,-49.18032786885246 28.23529411764706,0 0,8.196721311475411 7.058823529411765,0" style="fill: white; stroke-width: 2px; stroke: black;"/></g><rect x="0" y="0" width="36" height="50" class="djs-hit" style="fill: none; stroke-opacity: 0; stroke: white; stroke-width: 15px;"/><rect x="-6" y="-6" width="48" height="62" class="djs-outline" style="fill: none;"/></g></g><g class="djs-group"><g class="djs-element djs-shape" data-element-id="DataObjectReference_0kfame0_label" style="display: block;" transform="translate(343 210)"><g class="djs-visual"><text class="djs-label" style="font-family: Arial, sans-serif; font-size: 11px;"><tspan x="7" y="12">Resolución que </tspan><tspan x="4" y="24">autoriza práctica </tspan><tspan x="0" y="36">profesional y pago</tspan></text></g><rect x="0" y="0" width="89" height="36" class="djs-hit" style="fill: none; stroke-opacity: 0; stroke: white; stroke-width: 15px;"/><rect x="-6" y="-6" width="101" height="48" class="djs-outline" style="fill: none;"/></g></g><g class="djs-group"><g class="djs-element djs-shape" data-element-id="Task_0epp5mo" style="display: block;" transform="translate(718 281)"><g class="djs-visual"><rect x="0" y="0" width="100" height="80" rx="10" ry="10" style="stroke: black; stroke-width: 2px; fill: white;"/><text class="djs-label" style="font-family: Arial, sans-serif; font-size: 12px; fill: black;"><tspan x="27.5" y="29.5">Imprimir </tspan><tspan x="5.5" y="43.5">documento para</tspan><tspan x="14" y="57.5">firma manual</tspan></text></g><rect x="0" y="0" width="100" height="80" class="djs-hit" style="fill: none; stroke-opacity: 0; stroke: white; stroke-width: 15px;"/><rect x="-6" y="-6" width="112" height="92" class="djs-outline" style="fill: none;"/></g></g><g class="djs-group"><g class="djs-element djs-shape" data-element-id="Task_0y40xt5" style="display: block;" transform="translate(578 441)"><g class="djs-visual"><rect x="0" y="0" width="100" height="80" rx="10" ry="10" style="stroke: black; stroke-width: 2px; fill: white;"/><text class="djs-label" style="font-family: Arial, sans-serif; font-size: 12px; fill: black;"><tspan x="28.5" y="8.5">Revisar </tspan><tspan x="18" y="22.5">propuesta y </tspan><tspan x="33.5" y="36.5">firmar </tspan><tspan x="11" y="50.5">documento de </tspan><tspan x="34" y="64.5">forma </tspan><tspan x="20" y="78.5">electrónica</tspan></text></g><rect x="0" y="0" width="100" height="80" class="djs-hit" style="fill: none; stroke-opacity: 0; stroke: white; stroke-width: 15px;"/><rect x="-6" y="-6" width="112" height="92" class="djs-outline" style="fill: none;"/></g></g><g class="djs-group"><g class="djs-element djs-shape" data-element-id="DataObjectReference_03c0z32" style="display: block;" transform="translate(502 456)"><g class="djs-visual"><path d="m 0,0 28.23529411764706,0 7.058823529411765,8.196721311475411 0,40.98360655737705 -35.294117647058826,0 0,-49.18032786885246 28.23529411764706,0 0,8.196721311475411 7.058823529411765,0" style="fill: white; stroke-width: 2px; stroke: black;"/></g><rect x="0" y="0" width="36" height="50" class="djs-hit" style="fill: none; stroke-opacity: 0; stroke: white; stroke-width: 15px;"/><rect x="-6" y="-6" width="48" height="62" class="djs-outline" style="fill: none;"/></g></g><g class="djs-group"><g class="djs-element djs-shape" data-element-id="DataObjectReference_03c0z32_label" style="display: block;" transform="translate(478 510)"><g class="djs-visual"><text class="djs-label" style="font-family: Arial, sans-serif; font-size: 11px;"><tspan x="7" y="12">Resolución que </tspan><tspan x="4" y="24">autoriza práctica </tspan><tspan x="0" y="36">profesional y pago</tspan></text></g><rect x="0" y="0" width="89" height="36" class="djs-hit" style="fill: none; stroke-opacity: 0; stroke: white; stroke-width: 15px;"/><rect x="-6" y="-6" width="101" height="48" class="djs-outline" style="fill: none;"/></g></g><g class="djs-group"><g class="djs-element djs-shape" data-element-id="Task_15rbobd" style="display: block;" transform="translate(718 441)"><g class="djs-visual"><rect x="0" y="0" width="100" height="80" rx="10" ry="10" style="stroke: black; stroke-width: 2px; fill: white;"/><text class="djs-label" style="font-family: Arial, sans-serif; font-size: 12px; fill: black;"><tspan x="28.5" y="15.5">Revisar </tspan><tspan x="18" y="29.5">propuesta y </tspan><tspan x="33.5" y="43.5">firmar </tspan><tspan x="11" y="57.5">documento de </tspan><tspan x="12" y="71.5">forma manual</tspan></text></g><rect x="0" y="0" width="100" height="80" class="djs-hit" style="fill: none; stroke-opacity: 0; stroke: white; stroke-width: 15px;"/><rect x="-6" y="-6" width="112" height="92" class="djs-outline" style="fill: none;"/></g></g><g class="djs-group"><g class="djs-element djs-shape" data-element-id="ExclusiveGateway_024x6sb" style="display: block;" transform="translate(921 456)"><g class="djs-visual"><polygon points="25,0 50,25 25,50 0,25" style="stroke: black; stroke-width: 2px; fill: white;"/><path d="m 16,15 7.42857142857143,9.714285714285715 -7.42857142857143,9.714285714285715 3.428571428571429,0 5.714285714285715,-7.464228571428572 5.714285714285715,7.464228571428572 3.428571428571429,0 -7.42857142857143,-9.714285714285715 7.42857142857143,-9.714285714285715 -3.428571428571429,0 -5.714285714285715,7.464228571428572 -5.714285714285715,-7.464228571428572 -3.428571428571429,0 z" style="fill: black; stroke-width: 1px; stroke: black;"/></g><rect x="0" y="0" width="50" height="50" class="djs-hit" style="fill: none; stroke-opacity: 0; stroke: white; stroke-width: 15px;"/><rect x="-6" y="-6" width="62" height="62" class="djs-outline" style="fill: none;"/></g></g><g class="djs-group"><g class="djs-element djs-shape" data-element-id="ExclusiveGateway_024x6sb_label" style="display: none;" transform="translate(901 510)"><g class="djs-visual"><text class="djs-label" style="font-family: Arial, sans-serif; font-size: 11px;"><tspan x="0" y="12"/></text></g><rect x="0" y="0" width="90" height="12" class="djs-hit" style="fill: none; stroke-opacity: 0; stroke: white; stroke-width: 15px;"/><rect x="-6" y="-6" width="102" height="24" class="djs-outline" style="fill: none;"/></g></g><g class="djs-group"><g class="djs-element djs-shape" data-element-id="Task_1ig54zd" style="display: block;" transform="translate(443 166)"><g class="djs-visual"><rect x="0" y="0" width="100" height="80" rx="10" ry="10" style="stroke: black; stroke-width: 2px; fill: white;"/><text class="djs-label" style="font-family: Arial, sans-serif; font-size: 12px; fill: black;"><tspan x="9.5" y="29.5">Revisar y visar </tspan><tspan x="14" y="43.5">propuesta de </tspan><tspan x="21.5" y="57.5">resolución</tspan></text></g><rect x="0" y="0" width="100" height="80" class="djs-hit" style="fill: none; stroke-opacity: 0; stroke: white; stroke-width: 15px;"/><rect x="-6" y="-6" width="112" height="92" class="djs-outline" style="fill: none;"/></g></g><g class="djs-group"><g class="djs-element djs-shape" data-element-id="ExclusiveGateway_0yyjsyd" style="display: block;" transform="translate(603 181)"><g class="djs-visual"><polygon points="25,0 50,25 25,50 0,25" style="stroke: black; stroke-width: 2px; fill: white;"/><path d="m 16,15 7.42857142857143,9.714285714285715 -7.42857142857143,9.714285714285715 3.428571428571429,0 5.714285714285715,-7.464228571428572 5.714285714285715,7.464228571428572 3.428571428571429,0 -7.42857142857143,-9.714285714285715 7.42857142857143,-9.714285714285715 -3.428571428571429,0 -5.714285714285715,7.464228571428572 -5.714285714285715,-7.464228571428572 -3.428571428571429,0 z" style="fill: black; stroke-width: 1px; stroke: black;"/></g><rect x="0" y="0" width="50" height="50" class="djs-hit" style="fill: none; stroke-opacity: 0; stroke: white; stroke-width: 15px;"/><rect x="-6" y="-6" width="62" height="62" class="djs-outline" style="fill: none;"/></g></g><g class="djs-group"><g class="djs-element djs-shape" data-element-id="ExclusiveGateway_0yyjsyd_label" style="display: none;" transform="translate(493 235)"><g class="djs-visual"><text class="djs-label" style="font-family: Arial, sans-serif; font-size: 11px;"><tspan x="0" y="12"/></text></g><rect x="0" y="0" width="90" height="12" class="djs-hit" style="fill: none; stroke-opacity: 0; stroke: white; stroke-width: 15px;"/><rect x="-6" y="-6" width="102" height="24" class="djs-outline" style="fill: none;"/></g></g><g class="djs-group"><g class="djs-element djs-shape" data-element-id="Task_16o5a7y" style="display: block;" transform="translate(1197 -5)"><g class="djs-visual"><rect x="0" y="0" width="100" height="80" rx="10" ry="10" style="stroke: black; stroke-width: 2px; fill: white;"/><text class="djs-label" style="font-family: Arial, sans-serif; font-size: 12px; fill: black;"><tspan x="25" y="36.5">Distribuir </tspan><tspan x="19.5" y="50.5">documento</tspan></text></g><rect x="0" y="0" width="100" height="80" class="djs-hit" style="fill: none; stroke-opacity: 0; stroke: white; stroke-width: 15px;"/><rect x="-6" y="-6" width="112" height="92" class="djs-outline" style="fill: none;"/></g></g><g class="djs-group"><g class="djs-element djs-shape" data-element-id="EndEvent_18x3o51" style="display: block;" transform="translate(1329 17)"><g class="djs-visual"><circle cx="18" cy="18" r="18" style="stroke: black; stroke-width: 4px; fill: white;"/></g><rect x="0" y="0" width="36" height="36" class="djs-hit" style="fill: none; stroke-opacity: 0; stroke: white; stroke-width: 15px;"/><rect x="-6" y="-6" width="48" height="48" class="djs-outline" style="fill: none;"/></g></g><g class="djs-group"><g class="djs-element djs-shape" data-element-id="EndEvent_18x3o51_label" style="display: none;" transform="translate(1302 57)"><g class="djs-visual"><text class="djs-label" style="font-family: Arial, sans-serif; font-size: 11px;"><tspan x="0" y="12"/></text></g><rect x="0" y="0" width="90" height="12" class="djs-hit" style="fill: none; stroke-opacity: 0; stroke: white; stroke-width: 15px;"/><rect x="-6" y="-6" width="102" height="24" class="djs-outline" style="fill: none;"/></g></g><g class="djs-group"><g class="djs-element djs-shape selected" data-element-id="Task_1y090qi" style="display: block;" transform="translate(443 -268)"><g class="djs-visual"><rect x="0" y="0" width="100" height="80" rx="10" ry="10" style="stroke: black; stroke-width: 2px; fill: white;"/><text class="djs-label" style="font-family: Arial, sans-serif; font-size: 12px; fill: black;"><tspan x="34" y="36.5">Crear </tspan><tspan x="19.5" y="50.5">expediente</tspan></text></g><rect x="0" y="0" width="100" height="80" class="djs-hit" style="fill: none; stroke-opacity: 0; stroke: white; stroke-width: 15px;"/><rect x="-6" y="-6" width="112" height="92" class="djs-outline" style="fill: none;"/></g></g><g class="djs-group"><g class="djs-element djs-shape" data-element-id="StartEvent_1" style="display: block;" transform="translate(367 -246)"><g class="djs-visual"><circle cx="18" cy="18" r="18" style="stroke: black; stroke-width: 2px; fill: white;"/></g><rect x="0" y="0" width="36" height="36" class="djs-hit" style="fill: none; stroke-opacity: 0; stroke: white; stroke-width: 15px;"/><rect x="-6" y="-6" width="48" height="48" class="djs-outline" style="fill: none;"/></g></g><g class="djs-group"><g class="djs-element djs-shape" data-element-id="StartEvent_1_label" style="display: none;" transform="translate(340 -210)"><g class="djs-visual"><text class="djs-label" style="font-family: Arial, sans-serif; font-size: 11px;"><tspan x="0" y="12"/></text></g><rect x="0" y="0" width="90" height="20" class="djs-hit" style="fill: none; stroke-opacity: 0; stroke: white; stroke-width: 15px;"/><rect x="-6" y="-6" width="102" height="32" class="djs-outline" style="fill: none;"/></g></g><g class="djs-group"><g class="djs-element djs-connection" data-element-id="SequenceFlow_1oikmm8" style="display: block;"><g class="djs-visual"><path d="m  493,75L493,166 " style="fill: none; stroke-width: 2px; stroke: black; stroke-linejoin: round; marker-end: url('#sequenceflow-end-white-black');"/></g><polyline points="493,75 493,166 " class="djs-hit" style="fill: none; stroke-opacity: 0; stroke: white; stroke-width: 15px;"/><rect x="487" y="69" width="12" height="103" class="djs-outline" style="fill: none;"/></g></g><g class="djs-group"><g class="djs-element djs-shape" data-element-id="SequenceFlow_1oikmm8_label" style="display: none;" transform="translate(463 115)"><g class="djs-visual"><text class="djs-label" style="font-family: Arial, sans-serif; font-size: 11px;"><tspan x="0" y="12"/></text></g><rect x="0" y="0" width="90" height="12" class="djs-hit" style="fill: none; stroke-opacity: 0; stroke: white; stroke-width: 15px;"/><rect x="-6" y="-6" width="102" height="24" class="djs-outline" style="fill: none;"/></g></g><g class="djs-group"><g class="djs-element djs-connection" data-element-id="SequenceFlow_0hvpxd3" style="display: block;"><g class="djs-visual"><path d="m  493,-188L493,-5 " style="fill: none; stroke-width: 2px; stroke: black; stroke-linejoin: round; marker-end: url('#sequenceflow-end-white-black');"/></g><polyline points="493,-188 493,-5 " class="djs-hit" style="fill: none; stroke-opacity: 0; stroke: white; stroke-width: 15px;"/><rect x="487" y="-194" width="12" height="195" class="djs-outline" style="fill: none;"/></g></g><g class="djs-group"><g class="djs-element djs-shape" data-element-id="SequenceFlow_0hvpxd3_label" style="display: none;" transform="translate(463 -102)"><g class="djs-visual"><text class="djs-label" style="font-family: Arial, sans-serif; font-size: 11px;"><tspan x="0" y="12"/></text></g><rect x="0" y="0" width="90" height="12" class="djs-hit" style="fill: none; stroke-opacity: 0; stroke: white; stroke-width: 15px;"/><rect x="-6" y="-6" width="102" height="24" class="djs-outline" style="fill: none;"/></g></g><g class="djs-group"><g class="djs-element djs-connection" data-element-id="SequenceFlow_0zkxzew" style="display: block;"><g class="djs-visual"><path d="m  768,361L768,441 " style="fill: none; stroke-width: 2px; stroke: black; stroke-linejoin: round; marker-end: url('#sequenceflow-end-white-black');"/></g><polyline points="768,361 768,441 " class="djs-hit" style="fill: none; stroke-opacity: 0; stroke: white; stroke-width: 15px;"/><rect x="762" y="355" width="12" height="92" class="djs-outline" style="fill: none;"/></g></g><g class="djs-group"><g class="djs-element djs-shape" data-element-id="SequenceFlow_0zkxzew_label" style="display: none;" transform="translate(738 395)"><g class="djs-visual"><text class="djs-label" style="font-family: Arial, sans-serif; font-size: 11px;"><tspan x="0" y="12"/></text></g><rect x="0" y="0" width="90" height="12" class="djs-hit" style="fill: none; stroke-opacity: 0; stroke: white; stroke-width: 15px;"/><rect x="-6" y="-6" width="102" height="24" class="djs-outline" style="fill: none;"/></g></g><g class="djs-group"><g class="djs-element djs-connection" data-element-id="SequenceFlow_1x0v4t4" style="display: block;"><g class="djs-visual"><path d="m  628,231L628,441 " style="fill: none; stroke-width: 2px; stroke: black; stroke-linejoin: round; marker-end: url('#sequenceflow-end-white-black');"/></g><polyline points="628,231 628,441 " class="djs-hit" style="fill: none; stroke-opacity: 0; stroke: white; stroke-width: 15px;"/><rect x="622" y="225" width="12" height="222" class="djs-outline" style="fill: none;"/></g></g><g class="djs-group"><g class="djs-element djs-shape" data-element-id="SequenceFlow_1x0v4t4_label" style="display: none;" transform="translate(598 330)"><g class="djs-visual"><text class="djs-label" style="font-family: Arial, sans-serif; font-size: 11px;"><tspan x="0" y="12"/></text></g><rect x="0" y="0" width="90" height="12" class="djs-hit" style="fill: none; stroke-opacity: 0; stroke: white; stroke-width: 15px;"/><rect x="-6" y="-6" width="102" height="24" class="djs-outline" style="fill: none;"/></g></g><g class="djs-group"><g class="djs-element djs-connection" data-element-id="SequenceFlow_0b0qz0w" style="display: block;"><g class="djs-visual"><path d="m  818,481L921,481 " style="fill: none; stroke-width: 2px; stroke: black; stroke-linejoin: round; marker-end: url('#sequenceflow-end-white-black');"/></g><polyline points="818,481 921,481 " class="djs-hit" style="fill: none; stroke-opacity: 0; stroke: white; stroke-width: 15px;"/><rect x="812" y="475" width="115" height="12" class="djs-outline" style="fill: none;"/></g></g><g class="djs-group"><g class="djs-element djs-shape" data-element-id="SequenceFlow_0b0qz0w_label" style="display: none;" transform="translate(825 460)"><g class="djs-visual"><text class="djs-label" style="font-family: Arial, sans-serif; font-size: 11px;"><tspan x="0" y="12"/></text></g><rect x="0" y="0" width="90" height="12" class="djs-hit" style="fill: none; stroke-opacity: 0; stroke: white; stroke-width: 15px;"/><rect x="-6" y="-6" width="102" height="24" class="djs-outline" style="fill: none;"/></g></g><g class="djs-group"><g class="djs-element djs-connection" data-element-id="SequenceFlow_0ztzv4v" style="display: block;"><g class="djs-visual"><path d="m  543,206L603,206 " style="fill: none; stroke-width: 2px; stroke: black; stroke-linejoin: round; marker-end: url('#sequenceflow-end-white-black');"/></g><polyline points="543,206 603,206 " class="djs-hit" style="fill: none; stroke-opacity: 0; stroke: white; stroke-width: 15px;"/><rect x="537" y="200" width="72" height="12" class="djs-outline" style="fill: none;"/></g></g><g class="djs-group"><g class="djs-element djs-shape" data-element-id="SequenceFlow_0ztzv4v_label" style="display: none;" transform="translate(528 185)"><g class="djs-visual"><text class="djs-label" style="font-family: Arial, sans-serif; font-size: 11px;"><tspan x="0" y="12"/></text></g><rect x="0" y="0" width="90" height="12" class="djs-hit" style="fill: none; stroke-opacity: 0; stroke: white; stroke-width: 15px;"/><rect x="-6" y="-6" width="102" height="24" class="djs-outline" style="fill: none;"/></g></g><g class="djs-group"><g class="djs-element djs-connection" data-element-id="SequenceFlow_02tg2rh" style="display: block;"><g class="djs-visual"><path d="m  946,456L946,130 L517,130 L517,166 " style="fill: none; stroke-width: 2px; stroke: black; stroke-linejoin: round; marker-end: url('#sequenceflow-end-white-black');"/></g><polyline points="946,456 946,130 517,130 517,166 " class="djs-hit" style="fill: none; stroke-opacity: 0; stroke: white; stroke-width: 15px;"/><rect x="511" y="124" width="441" height="338" class="djs-outline" style="fill: none;"/></g></g><g class="djs-group"><g class="djs-element djs-shape" data-element-id="SequenceFlow_02tg2rh_label" style="display: none;" transform="translate(687 109)"><g class="djs-visual"><text class="djs-label" style="font-family: Arial, sans-serif; font-size: 11px;"><tspan x="0" y="12"/></text></g><rect x="0" y="0" width="90" height="12" class="djs-hit" style="fill: none; stroke-opacity: 0; stroke: white; stroke-width: 15px;"/><rect x="-6" y="-6" width="102" height="24" class="djs-outline" style="fill: none;"/></g></g><g class="djs-group"><g class="djs-element djs-connection" data-element-id="SequenceFlow_023433s" style="display: block;"><g class="djs-visual"><path d="m  971,481L1109,481 L1109,-65 " style="fill: none; stroke-width: 2px; stroke: black; stroke-linejoin: round; marker-end: url('#sequenceflow-end-white-black');"/></g><polyline points="971,481 1109,481 1109,-65 " class="djs-hit" style="fill: none; stroke-opacity: 0; stroke: white; stroke-width: 15px;"/><rect x="965" y="-71" width="150" height="558" class="djs-outline" style="fill: none;"/></g></g><g class="djs-group"><g class="djs-element djs-shape" data-element-id="SequenceFlow_023433s_label" style="display: none;" transform="translate(995 460)"><g class="djs-visual"><text class="djs-label" style="font-family: Arial, sans-serif; font-size: 11px;"><tspan x="0" y="12"/></text></g><rect x="0" y="0" width="90" height="12" class="djs-hit" style="fill: none; stroke-opacity: 0; stroke: white; stroke-width: 15px;"/><rect x="-6" y="-6" width="102" height="24" class="djs-outline" style="fill: none;"/></g></g><g class="djs-group"><g class="djs-element djs-connection" data-element-id="SequenceFlow_0jd09nt" style="display: block;"><g class="djs-visual"><path d="m  628,521L628,552 L946,552 L946,506 " style="fill: none; stroke-width: 2px; stroke: black; stroke-linejoin: round; marker-end: url('#sequenceflow-end-white-black');"/></g><polyline points="628,521 628,552 946,552 946,506 " class="djs-hit" style="fill: none; stroke-opacity: 0; stroke: white; stroke-width: 15px;"/><rect x="622" y="500" width="330" height="58" class="djs-outline" style="fill: none;"/></g></g><g class="djs-group"><g class="djs-element djs-shape" data-element-id="SequenceFlow_0jd09nt_label" style="display: none;" transform="translate(742 531)"><g class="djs-visual"><text class="djs-label" style="font-family: Arial, sans-serif; font-size: 11px;"><tspan x="0" y="12"/></text></g><rect x="0" y="0" width="90" height="12" class="djs-hit" style="fill: none; stroke-opacity: 0; stroke: white; stroke-width: 15px;"/><rect x="-6" y="-6" width="102" height="24" class="djs-outline" style="fill: none;"/></g></g><g class="djs-group"><g class="djs-element djs-connection" data-element-id="SequenceFlow_0u67l9h" style="display: block;"><g class="djs-visual"><path d="m  653,206L768,206 L768,281 " style="fill: none; stroke-width: 2px; stroke: black; stroke-linejoin: round; marker-end: url('#sequenceflow-end-white-black');"/></g><polyline points="653,206 768,206 768,281 " class="djs-hit" style="fill: none; stroke-opacity: 0; stroke: white; stroke-width: 15px;"/><rect x="647" y="200" width="127" height="87" class="djs-outline" style="fill: none;"/></g></g><g class="djs-group"><g class="djs-element djs-shape" data-element-id="SequenceFlow_0u67l9h_label" style="display: none;" transform="translate(666 185)"><g class="djs-visual"><text class="djs-label" style="font-family: Arial, sans-serif; font-size: 11px;"><tspan x="0" y="12"/></text></g><rect x="0" y="0" width="90" height="12" class="djs-hit" style="fill: none; stroke-opacity: 0; stroke: white; stroke-width: 15px;"/><rect x="-6" y="-6" width="102" height="24" class="djs-outline" style="fill: none;"/></g></g><g class="djs-group"><g class="djs-element djs-connection" data-element-id="SequenceFlow_018h3gk" style="display: block;"><g class="djs-visual"><path d="m  1297,35L1329,35 " style="fill: none; stroke-width: 2px; stroke: black; stroke-linejoin: round; marker-end: url('#sequenceflow-end-white-black');"/></g><polyline points="1297,35 1329,35 " class="djs-hit" style="fill: none; stroke-opacity: 0; stroke: white; stroke-width: 15px;"/><rect x="1291" y="29" width="44" height="12" class="djs-outline" style="fill: none;"/></g></g><g class="djs-group"><g class="djs-element djs-shape" data-element-id="SequenceFlow_018h3gk_label" style="display: none;" transform="translate(1268 14)"><g class="djs-visual"><text class="djs-label" style="font-family: Arial, sans-serif; font-size: 11px;"><tspan x="0" y="12"/></text></g><rect x="0" y="0" width="90" height="12" class="djs-hit" style="fill: none; stroke-opacity: 0; stroke: white; stroke-width: 15px;"/><rect x="-6" y="-6" width="102" height="24" class="djs-outline" style="fill: none;"/></g></g><g class="djs-group"><g class="djs-element djs-connection" data-element-id="SequenceFlow_0sjx1jm" style="display: block;"><g class="djs-visual"><path d="m  1159,-105L1247,-105 L1247,-5 " style="fill: none; stroke-width: 2px; stroke: black; stroke-linejoin: round; marker-end: url('#sequenceflow-end-white-black');"/></g><polyline points="1159,-105 1247,-105 1247,-5 " class="djs-hit" style="fill: none; stroke-opacity: 0; stroke: white; stroke-width: 15px;"/><rect x="1153" y="-111" width="100" height="112" class="djs-outline" style="fill: none;"/></g></g><g class="djs-group"><g class="djs-element djs-shape" data-element-id="SequenceFlow_0sjx1jm_label" style="display: none;" transform="translate(1158 -126)"><g class="djs-visual"><text class="djs-label" style="font-family: Arial, sans-serif; font-size: 11px;"><tspan x="0" y="12"/></text></g><rect x="0" y="0" width="90" height="12" class="djs-hit" style="fill: none; stroke-opacity: 0; stroke: white; stroke-width: 15px;"/><rect x="-6" y="-6" width="102" height="24" class="djs-outline" style="fill: none;"/></g></g><g class="djs-group"><g class="djs-element djs-connection" data-element-id="SequenceFlow_0x0jkdi" style="display: block;"><g class="djs-visual"><path d="m  403,-228L443,-228 " style="fill: none; stroke-width: 2px; stroke: black; stroke-linejoin: round; marker-end: url('#sequenceflow-end-white-black');"/></g><polyline points="403,-228 443,-228 " class="djs-hit" style="fill: none; stroke-opacity: 0; stroke: white; stroke-width: 15px;"/><rect x="397" y="-234" width="52" height="12" class="djs-outline" style="fill: none;"/></g></g><g class="djs-group"><g class="djs-element djs-shape" data-element-id="SequenceFlow_0x0jkdi_label" style="display: none;" transform="translate(378 -249)"><g class="djs-visual"><text class="djs-label" style="font-family: Arial, sans-serif; font-size: 11px;"><tspan x="0" y="12"/></text></g><rect x="0" y="0" width="90" height="12" class="djs-hit" style="fill: none; stroke-opacity: 0; stroke: white; stroke-width: 15px;"/><rect x="-6" y="-6" width="102" height="24" class="djs-outline" style="fill: none;"/></g></g><g class="djs-group"><g class="djs-element djs-connection" data-element-id="SequenceFlow_0gi6zwh" style="display: block;"><g class="djs-visual"><path d="m  403,-228L443,-228 " style="fill: none; stroke-width: 2px; stroke: black; stroke-linejoin: round; marker-end: url('#sequenceflow-end-white-black');"/></g><polyline points="403,-228 443,-228 " class="djs-hit" style="fill: none; stroke-opacity: 0; stroke: white; stroke-width: 15px;"/><rect x="397" y="-234" width="52" height="12" class="djs-outline" style="fill: none;"/></g></g><g class="djs-group"><g class="djs-element djs-shape" data-element-id="SequenceFlow_0gi6zwh_label" style="display: none;" transform="translate(378 -249)"><g class="djs-visual"><text class="djs-label" style="font-family: Arial, sans-serif; font-size: 11px;"><tspan x="0" y="12"/></text></g><rect x="0" y="0" width="90" height="12" class="djs-hit" style="fill: none; stroke-opacity: 0; stroke: white; stroke-width: 15px;"/><rect x="-6" y="-6" width="102" height="24" class="djs-outline" style="fill: none;"/></g></g><g class="djs-group"><g class="djs-element djs-connection" data-element-id="SequenceFlow_1i695jz" style="display: block;"><g class="djs-visual"><path d="m  403,-228L443,-228 " style="fill: none; stroke-width: 2px; stroke: black; stroke-linejoin: round; marker-end: url('#sequenceflow-end-white-black');"/></g><polyline points="403,-228 443,-228 " class="djs-hit" style="fill: none; stroke-opacity: 0; stroke: white; stroke-width: 15px;"/><rect x="397" y="-234" width="52" height="12" class="djs-outline" style="fill: none;"/></g></g><g class="djs-group"><g class="djs-element djs-shape" data-element-id="SequenceFlow_1i695jz_label" style="display: none;" transform="translate(378 -249)"><g class="djs-visual"><text class="djs-label" style="font-family: Arial, sans-serif; font-size: 11px;"><tspan x="0" y="12"/></text></g><rect x="0" y="0" width="90" height="12" class="djs-hit" style="fill: none; stroke-opacity: 0; stroke: white; stroke-width: 15px;"/><rect x="-6" y="-6" width="102" height="24" class="djs-outline" style="fill: none;"/></g></g><g class="djs-group"><g class="djs-element djs-connection" data-element-id="SequenceFlow_0l3x143" style="display: block;"><g class="djs-visual"><path d="m  403,-228L443,-228 " style="fill: none; stroke-width: 2px; stroke: black; stroke-linejoin: round; marker-end: url('#sequenceflow-end-white-black');"/></g><polyline points="403,-228 443,-228 " class="djs-hit" style="fill: none; stroke-opacity: 0; stroke: white; stroke-width: 15px;"/><rect x="397" y="-234" width="52" height="12" class="djs-outline" style="fill: none;"/></g></g><g class="djs-group"><g class="djs-element djs-shape" data-element-id="SequenceFlow_0l3x143_label" style="display: none;" transform="translate(378 -249)"><g class="djs-visual"><text class="djs-label" style="font-family: Arial, sans-serif; font-size: 11px;"><tspan x="0" y="12"/></text></g><rect x="0" y="0" width="90" height="12" class="djs-hit" style="fill: none; stroke-opacity: 0; stroke: white; stroke-width: 15px;"/><rect x="-6" y="-6" width="102" height="24" class="djs-outline" style="fill: none;"/></g></g><g class="djs-group"><g class="djs-element djs-connection" data-element-id="SequenceFlow_0az5wbn" style="display: block;"><g class="djs-visual"><path d="m  403,-228L443,-228 " style="fill: none; stroke-width: 2px; stroke: black; stroke-linejoin: round; marker-end: url('#sequenceflow-end-white-black');"/></g><polyline points="403,-228 443,-228 " class="djs-hit" style="fill: none; stroke-opacity: 0; stroke: white; stroke-width: 15px;"/><rect x="397" y="-234" width="52" height="12" class="djs-outline" style="fill: none;"/></g></g><g class="djs-group"><g class="djs-element djs-shape" data-element-id="SequenceFlow_0az5wbn_label" style="display: none;" transform="translate(378 -249)"><g class="djs-visual"><text class="djs-label" style="font-family: Arial, sans-serif; font-size: 11px;"><tspan x="0" y="12"/></text></g><rect x="0" y="0" width="90" height="12" class="djs-hit" style="fill: none; stroke-opacity: 0; stroke: white; stroke-width: 15px;"/><rect x="-6" y="-6" width="102" height="24" class="djs-outline" style="fill: none;"/></g></g><g class="djs-group"><g class="djs-element djs-connection" data-element-id="SequenceFlow_0zo43gn" style="display: block;"><g class="djs-visual"><path d="m  403,-228L443,-228 " style="fill: none; stroke-width: 2px; stroke: black; stroke-linejoin: round; marker-end: url('#sequenceflow-end-white-black');"/></g><polyline points="403,-228 443,-228 " class="djs-hit" style="fill: none; stroke-opacity: 0; stroke: white; stroke-width: 15px;"/><rect x="397" y="-234" width="52" height="12" class="djs-outline" style="fill: none;"/></g></g><g class="djs-group"><g class="djs-element djs-shape" data-element-id="SequenceFlow_0zo43gn_label" style="display: none;" transform="translate(378 -249)"><g class="djs-visual"><text class="djs-label" style="font-family: Arial, sans-serif; font-size: 11px;"><tspan x="0" y="12"/></text></g><rect x="0" y="0" width="90" height="12" class="djs-hit" style="fill: none; stroke-opacity: 0; stroke: white; stroke-width: 15px;"/><rect x="-6" y="-6" width="102" height="24" class="djs-outline" style="fill: none;"/></g></g><g class="djs-group"><g class="djs-element djs-connection" data-element-id="SequenceFlow_022ojc3" style="display: block;"><g class="djs-visual"><path d="m  403,-228L443,-228 " style="fill: none; stroke-width: 2px; stroke: black; stroke-linejoin: round; marker-end: url('#sequenceflow-end-white-black');"/></g><polyline points="403,-228 443,-228 " class="djs-hit" style="fill: none; stroke-opacity: 0; stroke: white; stroke-width: 15px;"/><rect x="397" y="-234" width="52" height="12" class="djs-outline" style="fill: none;"/></g></g><g class="djs-group"><g class="djs-element djs-shape" data-element-id="SequenceFlow_022ojc3_label" style="display: none;" transform="translate(378 -249)"><g class="djs-visual"><text class="djs-label" style="font-family: Arial, sans-serif; font-size: 11px;"><tspan x="0" y="12"/></text></g><rect x="0" y="0" width="90" height="12" class="djs-hit" style="fill: none; stroke-opacity: 0; stroke: white; stroke-width: 15px;"/><rect x="-6" y="-6" width="102" height="24" class="djs-outline" style="fill: none;"/></g></g><g class="djs-group"><g class="djs-element djs-connection" data-element-id="SequenceFlow_0c503j5" style="display: block;"><g class="djs-visual"><path d="m  403,-228L443,-228 " style="fill: none; stroke-width: 2px; stroke: black; stroke-linejoin: round; marker-end: url('#sequenceflow-end-white-black');"/></g><polyline points="403,-228 443,-228 " class="djs-hit" style="fill: none; stroke-opacity: 0; stroke: white; stroke-width: 15px;"/><rect x="397" y="-234" width="52" height="12" class="djs-outline" style="fill: none;"/></g></g><g class="djs-group"><g class="djs-element djs-shape" data-element-id="SequenceFlow_0c503j5_label" style="display: none;" transform="translate(378 -249)"><g class="djs-visual"><text class="djs-label" style="font-family: Arial, sans-serif; font-size: 11px;"><tspan x="0" y="12"/></text></g><rect x="0" y="0" width="90" height="12" class="djs-hit" style="fill: none; stroke-opacity: 0; stroke: white; stroke-width: 15px;"/><rect x="-6" y="-6" width="102" height="24" class="djs-outline" style="fill: none;"/></g></g></g></g><g class="djs-group"><g class="djs-element djs-connection" data-element-id="DataOutputAssociation_03of0hg" style="display: block;"><g class="djs-visual"><polyline points="443,32 403,33 " style="fill: none; stroke: black; stroke-width: 2px; stroke-dasharray: 0.5, 5; stroke-linecap: round; stroke-linejoin: round; marker-end: url('#association-end-white-black');"/></g><polyline points="443,32 403,33 " class="djs-hit" style="fill: none; stroke-opacity: 0; stroke: white; stroke-width: 15px;"/><rect x="397" y="26" width="52" height="13" class="djs-outline" style="fill: none;"/></g></g><g class="djs-group"><g class="djs-element djs-connection" data-element-id="DataOutputAssociation_0ieyyfc" style="display: block;"><g class="djs-visual"><polyline points="1059,-110 1029,-110 " style="fill: none; stroke: black; stroke-width: 2px; stroke-dasharray: 0.5, 5; stroke-linecap: round; stroke-linejoin: round; marker-end: url('#association-end-white-black');"/></g><polyline points="1059,-110 1029,-110 " class="djs-hit" style="fill: none; stroke-opacity: 0; stroke: white; stroke-width: 15px;"/><rect x="1023" y="-116" width="42" height="12" class="djs-outline" style="fill: none;"/></g></g><g class="djs-group"><g class="djs-element djs-connection" data-element-id="DataOutputAssociation_1p0qth4" style="display: block;"><g class="djs-visual"><polyline points="578,485 538,483 " style="fill: none; stroke: black; stroke-width: 2px; stroke-dasharray: 0.5, 5; stroke-linecap: round; stroke-linejoin: round; marker-end: url('#association-end-white-black');"/></g><polyline points="578,485 538,483 " class="djs-hit" style="fill: none; stroke-opacity: 0; stroke: white; stroke-width: 15px;"/><rect x="532" y="477" width="52" height="14" class="djs-outline" style="fill: none;"/></g></g><g class="djs-group"><g class="djs-element djs-connection" data-element-id="DataOutputAssociation_0oj4hb0" style="display: block;"><g class="djs-visual"><polyline points="443,194 403,185 " style="fill: none; stroke: black; stroke-width: 2px; stroke-dasharray: 0.5, 5; stroke-linecap: round; stroke-linejoin: round; marker-end: url('#association-end-white-black');"/></g><polyline points="443,194 403,185 " class="djs-hit" style="fill: none; stroke-opacity: 0; stroke: white; stroke-width: 15px;"/><rect x="397" y="179" width="52" height="21" class="djs-outline" style="fill: none;"/></g></g></svg>