<?xml version="1.0" encoding="utf-8"?>
<!-- created with bpmn-js / http://bpmn.io -->
<!DOCTYPE svg PUBLIC "-//W3C//DTD SVG 1.1//EN" "http://www.w3.org/Graphics/SVG/1.1/DTD/svg11.dtd">
<svg xmlns="http://www.w3.org/2000/svg" xmlns:xlink="http://www.w3.org/1999/xlink" width="664" height="827" viewBox="104 17 664 827" version="1.1"><defs><marker id="sequenceflow-end-white-black" viewBox="0 0 20 20" refX="11" refY="10" markerWidth="10" markerHeight="10" orient="auto"><path d="M 1 5 L 11 10 L 1 15 Z" style="fill: black; stroke-width: 1px; stroke-linecap: round; stroke-dasharray: 10000, 1; stroke: black;"></path></marker><marker id="association-end-white-black" viewBox="0 0 20 20" refX="12" refY="10" markerWidth="10" markerHeight="10" orient="auto"><path d="M 1 5 L 11 10 L 1 15" style="fill: none; stroke-width: 1.5px; stroke-linecap: round; stroke-dasharray: 10000, 1; stroke: black;"></path></marker></defs><g class="djs-group"><g class="djs-element djs-shape" data-element-id="Participant_09973hc" style="display: block;" transform="translate(110 23)"><g class="djs-visual"><rect x="0" y="0" width="652" height="815" rx="0" ry="0" style="stroke: black; stroke-width: 2px; fill: white; fill-opacity: 0.95;"/><polyline points="30,0 30,815 " style="fill: none; stroke: black; stroke-width: 2px;"/><text class="djs-label" style="font-family: Arial, sans-serif; font-size: 12px; fill: black;" transform="matrix(-1.83697e-16 -1 1 -1.83697e-16 0 815)"><tspan x="235.5" y="18.5">Notificaciones de parque de juego antes de inicio de operación</tspan></text></g><rect x="0" y="0" width="652" height="815" class="djs-hit" style="fill: none; stroke-opacity: 0; stroke: white; stroke-width: 15px;"/><rect x="-6" y="-6" width="664" height="827" class="djs-outline" style="fill: none;"/></g><g class="djs-children"><g class="djs-group"><g class="djs-element djs-shape" data-element-id="Lane_03iuhqs" style="display: block;" transform="translate(140 242)"><g class="djs-visual"><rect x="0" y="0" width="622" height="149" rx="0" ry="0" style="stroke: black; stroke-width: 2px; fill: white;"/><text class="djs-label" style="font-family: Arial, sans-serif; font-size: 12px; fill: black;" transform="matrix(-1.83697e-16 -1 1 -1.83697e-16 0 149)"><tspan x="11" y="11.5">Analista de notificación </tspan><tspan x="21.5" y="25.5">- Profesional DAUT</tspan></text></g><rect x="0" y="0" width="622" height="149" class="djs-hit" style="fill: none; stroke-opacity: 0; stroke: white; stroke-width: 15px;"/><rect x="-6" y="-6" width="634" height="161" class="djs-outline" style="fill: none;"/></g></g><g class="djs-group"><g class="djs-element djs-shape" data-element-id="Lane_0exl18g" style="display: block;" transform="translate(140 391)"><g class="djs-visual"><rect x="0" y="0" width="622" height="156" rx="0" ry="0" style="stroke: black; stroke-width: 2px; fill: white;"/><text class="djs-label" style="font-family: Arial, sans-serif; font-size: 12px; fill: black;" transform="matrix(-1.83697e-16 -1 1 -1.83697e-16 0 156)"><tspan x="0.5" y="11.5">Responsable de notificación</tspan><tspan x="44.5" y="25.5">- Jefe DAUT</tspan></text></g><rect x="0" y="0" width="622" height="156" class="djs-hit" style="fill: none; stroke-opacity: 0; stroke: white; stroke-width: 15px;"/><rect x="-6" y="-6" width="634" height="168" class="djs-outline" style="fill: none;"/></g></g><g class="djs-group"><g class="djs-element djs-shape" data-element-id="Lane_0d37665" style="display: block;" transform="translate(140 23)"><g class="djs-visual"><rect x="0" y="0" width="622" height="219" rx="0" ry="0" style="stroke: black; stroke-width: 2px; fill: white;"/><text class="djs-label" style="font-family: Arial, sans-serif; font-size: 12px; fill: black;" transform="matrix(-1.83697e-16 -1 1 -1.83697e-16 0 219)"><tspan x="27.5" y="18.5">Administrador de documentos</tspan></text></g><rect x="0" y="0" width="622" height="219" class="djs-hit" style="fill: none; stroke-opacity: 0; stroke: white; stroke-width: 15px;"/><rect x="-6" y="-6" width="634" height="231" class="djs-outline" style="fill: none;"/></g></g><g class="djs-group"><g class="djs-element djs-shape" data-element-id="Lane_0e71hit" style="display: block;" transform="translate(140 547)"><g class="djs-visual"><rect x="0" y="0" width="622" height="141" rx="0" ry="0" style="stroke: black; stroke-width: 2px; fill: white;"/><text class="djs-label" style="font-family: Arial, sans-serif; font-size: 12px; fill: black;" transform="matrix(-1.83697e-16 -1 1 -1.83697e-16 0 141)"><tspan x="28.5" y="11.5">Revisor técnico </tspan><tspan x="40.5" y="25.5">- Jefe DFIS</tspan></text></g><rect x="0" y="0" width="622" height="141" class="djs-hit" style="fill: none; stroke-opacity: 0; stroke: white; stroke-width: 15px;"/><rect x="-6" y="-6" width="634" height="153" class="djs-outline" style="fill: none;"/></g></g><g class="djs-group"><g class="djs-element djs-shape" data-element-id="Lane_12s3yvb" style="display: block;" transform="translate(140 688)"><g class="djs-visual"><rect x="0" y="0" width="622" height="150" rx="0" ry="0" style="stroke: black; stroke-width: 2px; fill: white;"/><text class="djs-label" style="font-family: Arial, sans-serif; font-size: 12px; fill: black;" transform="matrix(-1.83697e-16 -1 1 -1.83697e-16 0 150)"><tspan x="4.5" y="11.5">Encargado del registro de </tspan><tspan x="25.5" y="25.5">notificación - DFIS</tspan></text></g><rect x="0" y="0" width="622" height="150" class="djs-hit" style="fill: none; stroke-opacity: 0; stroke: white; stroke-width: 15px;"/><rect x="-6" y="-6" width="634" height="162" class="djs-outline" style="fill: none;"/></g></g><g class="djs-group"><g class="djs-element djs-shape" data-element-id="Task_0i3w7zo" style="display: block;" transform="translate(211 118)"><g class="djs-visual"><rect x="0" y="0" width="100" height="80" rx="10" ry="10" style="stroke: black; stroke-width: 2px; fill: white;"/><text class="djs-label" style="font-family: Arial, sans-serif; font-size: 12px; fill: black;"><tspan x="26" y="29.5">Adjuntar </tspan><tspan x="10" y="43.5">documento y/o </tspan><tspan x="13" y="57.5">antecedentes</tspan></text></g><rect x="0" y="0" width="100" height="80" class="djs-hit" style="fill: none; stroke-opacity: 0; stroke: white; stroke-width: 15px;"/><rect x="-6" y="-6" width="112" height="92" class="djs-outline" style="fill: none;"/></g></g><g class="djs-group"><g class="djs-element djs-shape" data-element-id="Task_0q4s9mo" style="display: block;" transform="translate(400 274)"><g class="djs-visual"><rect x="0" y="0" width="100" height="80" rx="10" ry="10" style="stroke: black; stroke-width: 2px; fill: white;"/><text class="djs-label" style="font-family: Arial, sans-serif; font-size: 12px; fill: black;"><tspan x="22.5" y="29.5">Analizar y </tspan><tspan x="27" y="43.5">registrar </tspan><tspan x="19" y="57.5">notificación</tspan></text></g><rect x="0" y="0" width="100" height="80" class="djs-hit" style="fill: none; stroke-opacity: 0; stroke: white; stroke-width: 15px;"/><rect x="-6" y="-6" width="112" height="92" class="djs-outline" style="fill: none;"/></g></g><g class="djs-group"><g class="djs-element djs-shape" data-element-id="Task_15373vy" style="display: block;" transform="translate(211 430)"><g class="djs-visual"><rect x="0" y="0" width="100" height="80" rx="10" ry="10" style="stroke: black; stroke-width: 2px; fill: white;"/><text class="djs-label" style="font-family: Arial, sans-serif; font-size: 12px; fill: black;"><tspan x="28.5" y="36.5">Revisar </tspan><tspan x="19" y="50.5">notificación</tspan></text></g><rect x="0" y="0" width="100" height="80" class="djs-hit" style="fill: none; stroke-opacity: 0; stroke: white; stroke-width: 15px;"/><rect x="-6" y="-6" width="112" height="92" class="djs-outline" style="fill: none;"/></g></g><g class="djs-group"><g class="djs-element djs-shape" data-element-id="Task_0z37ppw" style="display: block;" transform="translate(400 585)"><g class="djs-visual"><rect x="0" y="0" width="100" height="80" rx="10" ry="10" style="stroke: black; stroke-width: 2px; fill: white;"/><text class="djs-label" style="font-family: Arial, sans-serif; font-size: 12px; fill: black;"><tspan x="28.5" y="36.5">Revisar </tspan><tspan x="19" y="50.5">notificación</tspan></text></g><rect x="0" y="0" width="100" height="80" class="djs-hit" style="fill: none; stroke-opacity: 0; stroke: white; stroke-width: 15px;"/><rect x="-6" y="-6" width="112" height="92" class="djs-outline" style="fill: none;"/></g></g><g class="djs-group"><g class="djs-element djs-shape" data-element-id="Task_0mqivu1" style="display: block;" transform="translate(549 274)"><g class="djs-visual"><rect x="0" y="0" width="100" height="80" rx="10" ry="10" style="stroke: black; stroke-width: 2px; fill: white;"/><text class="djs-label" style="font-family: Arial, sans-serif; font-size: 12px; fill: black;"><tspan x="32" y="36.5">Cerrar </tspan><tspan x="19.5" y="50.5">expediente</tspan></text></g><rect x="0" y="0" width="100" height="80" class="djs-hit" style="fill: none; stroke-opacity: 0; stroke: white; stroke-width: 15px;"/><rect x="-6" y="-6" width="112" height="92" class="djs-outline" style="fill: none;"/></g></g><g class="djs-group"><g class="djs-element djs-shape" data-element-id="EndEvent_1uccviq" style="display: block;" transform="translate(681 296)"><g class="djs-visual"><circle cx="18" cy="18" r="18" style="stroke: black; stroke-width: 4px; fill: white;"/></g><rect x="0" y="0" width="36" height="36" class="djs-hit" style="fill: none; stroke-opacity: 0; stroke: white; stroke-width: 15px;"/><rect x="-6" y="-6" width="48" height="48" class="djs-outline" style="fill: none;"/></g></g><g class="djs-group"><g class="djs-element djs-shape" data-element-id="EndEvent_1uccviq_label" style="display: none;" transform="translate(654 336)"><g class="djs-visual"><text class="djs-label" style="font-family: Arial, sans-serif; font-size: 11px;"><tspan x="0" y="12"/></text></g><rect x="0" y="0" width="90" height="12" class="djs-hit" style="fill: none; stroke-opacity: 0; stroke: white; stroke-width: 15px;"/><rect x="-6" y="-6" width="102" height="24" class="djs-outline" style="fill: none;"/></g></g><g class="djs-group"><g class="djs-element djs-shape" data-element-id="StartEvent_1" style="display: block;" transform="translate(243 55)"><g class="djs-visual"><circle cx="18" cy="18" r="18" style="stroke: black; stroke-width: 2px; fill: white;"/></g><rect x="0" y="0" width="36" height="36" class="djs-hit" style="fill: none; stroke-opacity: 0; stroke: white; stroke-width: 15px;"/><rect x="-6" y="-6" width="48" height="48" class="djs-outline" style="fill: none;"/></g></g><g class="djs-group"><g class="djs-element djs-shape" data-element-id="StartEvent_1_label" style="display: none;" transform="translate(216 91)"><g class="djs-visual"><text class="djs-label" style="font-family: Arial, sans-serif; font-size: 11px;"><tspan x="0" y="12"/></text></g><rect x="0" y="0" width="90" height="20" class="djs-hit" style="fill: none; stroke-opacity: 0; stroke: white; stroke-width: 15px;"/><rect x="-6" y="-6" width="102" height="32" class="djs-outline" style="fill: none;"/></g></g><g class="djs-group"><g class="djs-element djs-shape" data-element-id="DataObjectReference_1dtsixs" style="display: block;" transform="translate(333 48)"><g class="djs-visual"><path d="m 0,0 28.23529411764706,0 7.058823529411765,8.196721311475411 0,40.98360655737705 -35.294117647058826,0 0,-49.18032786885246 28.23529411764706,0 0,8.196721311475411 7.058823529411765,0" style="fill: white; stroke-width: 2px; stroke: black;"/></g><rect x="0" y="0" width="36" height="50" class="djs-hit" style="fill: none; stroke-opacity: 0; stroke: white; stroke-width: 15px;"/><rect x="-6" y="-6" width="48" height="62" class="djs-outline" style="fill: none;"/></g></g><g class="djs-group"><g class="djs-element djs-shape" data-element-id="DataObjectReference_1dtsixs_label" style="display: block;" transform="translate(377 49)"><g class="djs-visual"><text class="djs-label" style="font-family: Arial, sans-serif; font-size: 11px;"><tspan x="14" y="12">Notificación </tspan><tspan x="0.5" y="24">Parque de Juego </tspan><tspan x="0" y="36">antes de inicio de</tspan><tspan x="18" y="48">operación</tspan></text></g><rect x="0" y="0" width="84" height="48" class="djs-hit" style="fill: none; stroke-opacity: 0; stroke: white; stroke-width: 15px;"/><rect x="-6" y="-6" width="96" height="60" class="djs-outline" style="fill: none;"/></g></g><g class="djs-group"><g class="djs-element djs-shape" data-element-id="Task_0dtyxuj" style="display: block;" transform="translate(400 729)"><g class="djs-visual"><rect x="0" y="0" width="100" height="80" rx="10" ry="10" style="stroke: black; stroke-width: 2px; fill: white;"/><text class="djs-label" style="font-family: Arial, sans-serif; font-size: 12px; fill: black;"><tspan x="24.5" y="36.5">Registrar </tspan><tspan x="19" y="50.5">notificación</tspan></text></g><rect x="0" y="0" width="100" height="80" class="djs-hit" style="fill: none; stroke-opacity: 0; stroke: white; stroke-width: 15px;"/><rect x="-6" y="-6" width="112" height="92" class="djs-outline" style="fill: none;"/></g></g><g class="djs-group"><g class="djs-element djs-connection" data-element-id="SequenceFlow_15abtgi" style="display: block;"><g class="djs-visual"><path d="m  261,198L261,430 " style="fill: none; stroke-width: 2px; stroke: black; stroke-linejoin: round; marker-end: url('#sequenceflow-end-white-black');"/></g><polyline points="261,198 261,430 " class="djs-hit" style="fill: none; stroke-opacity: 0; stroke: white; stroke-width: 15px;"/><rect x="255" y="192" width="12" height="244" class="djs-outline" style="fill: none;"/></g></g><g class="djs-group"><g class="djs-element djs-shape" data-element-id="SequenceFlow_15abtgi_label" style="display: none;" transform="translate(231 308)"><g class="djs-visual"><text class="djs-label" style="font-family: Arial, sans-serif; font-size: 11px;"><tspan x="0" y="12"/></text></g><rect x="0" y="0" width="90" height="12" class="djs-hit" style="fill: none; stroke-opacity: 0; stroke: white; stroke-width: 15px;"/><rect x="-6" y="-6" width="102" height="24" class="djs-outline" style="fill: none;"/></g></g><g class="djs-group"><g class="djs-element djs-connection" data-element-id="SequenceFlow_176rqwn" style="display: block;"><g class="djs-visual"><path d="m  311,470L351,470 L351,314 L400,314 " style="fill: none; stroke-width: 2px; stroke: black; stroke-linejoin: round; marker-end: url('#sequenceflow-end-white-black');"/></g><polyline points="311,470 351,470 351,314 400,314 " class="djs-hit" style="fill: none; stroke-opacity: 0; stroke: white; stroke-width: 15px;"/><rect x="305" y="308" width="101" height="168" class="djs-outline" style="fill: none;"/></g></g><g class="djs-group"><g class="djs-element djs-shape" data-element-id="SequenceFlow_176rqwn_label" style="display: none;" transform="translate(321 386)"><g class="djs-visual"><text class="djs-label" style="font-family: Arial, sans-serif; font-size: 11px;"><tspan x="0" y="12"/></text></g><rect x="0" y="0" width="90" height="12" class="djs-hit" style="fill: none; stroke-opacity: 0; stroke: white; stroke-width: 15px;"/><rect x="-6" y="-6" width="102" height="24" class="djs-outline" style="fill: none;"/></g></g><g class="djs-group"><g class="djs-element djs-connection" data-element-id="SequenceFlow_0e88sur" style="display: block;"><g class="djs-visual"><path d="m  261,91L261,118 " style="fill: none; stroke-width: 2px; stroke: black; stroke-linejoin: round; marker-end: url('#sequenceflow-end-white-black');"/></g><polyline points="261,91 261,118 " class="djs-hit" style="fill: none; stroke-opacity: 0; stroke: white; stroke-width: 15px;"/><rect x="255" y="85" width="12" height="39" class="djs-outline" style="fill: none;"/></g></g><g class="djs-group"><g class="djs-element djs-shape" data-element-id="SequenceFlow_0e88sur_label" style="display: none;" transform="translate(231 99)"><g class="djs-visual"><text class="djs-label" style="font-family: Arial, sans-serif; font-size: 11px;"><tspan x="0" y="12"/></text></g><rect x="0" y="0" width="90" height="12" class="djs-hit" style="fill: none; stroke-opacity: 0; stroke: white; stroke-width: 15px;"/><rect x="-6" y="-6" width="102" height="24" class="djs-outline" style="fill: none;"/></g></g><g class="djs-group"><g class="djs-element djs-connection" data-element-id="SequenceFlow_15c75gj" style="display: block;"><g class="djs-visual"><path d="m  649,314L682,314 " style="fill: none; stroke-width: 2px; stroke: black; stroke-linejoin: round; marker-end: url('#sequenceflow-end-white-black');"/></g><polyline points="649,314 682,314 " class="djs-hit" style="fill: none; stroke-opacity: 0; stroke: white; stroke-width: 15px;"/><rect x="643" y="308" width="45" height="12" class="djs-outline" style="fill: none;"/></g></g><g class="djs-group"><g class="djs-element djs-shape" data-element-id="SequenceFlow_15c75gj_label" style="display: none;" transform="translate(621 293)"><g class="djs-visual"><text class="djs-label" style="font-family: Arial, sans-serif; font-size: 11px;"><tspan x="0" y="12"/></text></g><rect x="0" y="0" width="90" height="12" class="djs-hit" style="fill: none; stroke-opacity: 0; stroke: white; stroke-width: 15px;"/><rect x="-6" y="-6" width="102" height="24" class="djs-outline" style="fill: none;"/></g></g><g class="djs-group"><g class="djs-element djs-connection" data-element-id="SequenceFlow_1ux68oe" style="display: block;"><g class="djs-visual"><path d="m  450,354L450,585 " style="fill: none; stroke-width: 2px; stroke: black; stroke-linejoin: round; marker-end: url('#sequenceflow-end-white-black');"/></g><polyline points="450,354 450,585 " class="djs-hit" style="fill: none; stroke-opacity: 0; stroke: white; stroke-width: 15px;"/><rect x="444" y="348" width="12" height="243" class="djs-outline" style="fill: none;"/></g></g><g class="djs-group"><g class="djs-element djs-shape" data-element-id="SequenceFlow_1ux68oe_label" style="display: none;" transform="translate(420 464)"><g class="djs-visual"><text class="djs-label" style="font-family: Arial, sans-serif; font-size: 11px;"><tspan x="0" y="12"/></text></g><rect x="0" y="0" width="90" height="12" class="djs-hit" style="fill: none; stroke-opacity: 0; stroke: white; stroke-width: 15px;"/><rect x="-6" y="-6" width="102" height="24" class="djs-outline" style="fill: none;"/></g></g><g class="djs-group"><g class="djs-element djs-connection" data-element-id="SequenceFlow_1ldl2ku" style="display: block;"><g class="djs-visual"><path d="m  450,665L450,729 " style="fill: none; stroke-width: 2px; stroke: black; stroke-linejoin: round; marker-end: url('#sequenceflow-end-white-black');"/></g><polyline points="450,665 450,729 " class="djs-hit" style="fill: none; stroke-opacity: 0; stroke: white; stroke-width: 15px;"/><rect x="444" y="659" width="12" height="76" class="djs-outline" style="fill: none;"/></g></g><g class="djs-group"><g class="djs-element djs-shape" data-element-id="SequenceFlow_1ldl2ku_label" style="display: none;" transform="translate(420 691)"><g class="djs-visual"><text class="djs-label" style="font-family: Arial, sans-serif; font-size: 11px;"><tspan x="0" y="12"/></text></g><rect x="0" y="0" width="90" height="12" class="djs-hit" style="fill: none; stroke-opacity: 0; stroke: white; stroke-width: 15px;"/><rect x="-6" y="-6" width="102" height="24" class="djs-outline" style="fill: none;"/></g></g><g class="djs-group"><g class="djs-element djs-connection" data-element-id="SequenceFlow_1uxxcvw" style="display: block;"><g class="djs-visual"><path d="m  500,769L599,769 L599,354 " style="fill: none; stroke-width: 2px; stroke: black; stroke-linejoin: round; marker-end: url('#sequenceflow-end-white-black');"/></g><polyline points="500,769 599,769 599,354 " class="djs-hit" style="fill: none; stroke-opacity: 0; stroke: white; stroke-width: 15px;"/><rect x="494" y="348" width="111" height="427" class="djs-outline" style="fill: none;"/></g></g><g class="djs-group"><g class="djs-element djs-shape" data-element-id="SequenceFlow_1uxxcvw_label" style="display: none;" transform="translate(505 748)"><g class="djs-visual"><text class="djs-label" style="font-family: Arial, sans-serif; font-size: 11px;"><tspan x="0" y="12"/></text></g><rect x="0" y="0" width="90" height="12" class="djs-hit" style="fill: none; stroke-opacity: 0; stroke: white; stroke-width: 15px;"/><rect x="-6" y="-6" width="102" height="24" class="djs-outline" style="fill: none;"/></g></g></g></g><g class="djs-group"><g class="djs-element djs-connection" data-element-id="DataOutputAssociation_0tf2jbu" style="display: block;"><g class="djs-visual"><polyline points="302,119 333,92 " style="fill: none; stroke: black; stroke-width: 2px; stroke-dasharray: 0.5, 5; stroke-linecap: round; stroke-linejoin: round; marker-end: url('#association-end-white-black');"/></g><polyline points="302,119 333,92 " class="djs-hit" style="fill: none; stroke-opacity: 0; stroke: white; stroke-width: 15px;"/><rect x="296" y="86" width="43" height="39" class="djs-outline" style="fill: none;"/></g></g></svg>